<?xml version="1.0" standalone="no"?>
<!DOCTYPE svg PUBLIC "-//W3C//DTD SVG 1.1//EN" "http://www.w3.org/Graphics/SVG/1.1/DTD/svg11.dtd" >
<svg xmlns="http://www.w3.org/2000/svg" xmlns:xlink="http://www.w3.org/1999/xlink" version="1.1">
<metadata></metadata>
<defs>
<font id="mesmerizecondensed_extralight" horiz-adv-x="874" >
<font-face units-per-em="2048" ascent="1622" descent="-426" />
<missing-glyph horiz-adv-x="356" />
<glyph unicode="&#x28;C&#x29;" horiz-adv-x="1005" d="M68 782q0 156 28.5 300.5t84 257t136 180t185.5 67.5q104 0 185 -67.5t137.5 -180t85 -258t28.5 -299.5t-28.5 -298t-85 -256.5t-137.5 -180t-185 -67.5q-106 2 -187.5 70.5t-136.5 181t-82.5 256t-27.5 294.5zM127 784q0 -145 23.5 -279t71.5 -237.5t118 -166t162 -62.5 q90 0 159.5 61.5t117.5 164t73 236.5t25 281t-25 282.5t-73 238t-117.5 164t-159.5 61.5t-161 -61.5t-118 -164t-71.5 -236.5t-24.5 -282zM264 786q0 205 69.5 321t178.5 116q59 0 106.5 -34t86.5 -87l-33 -45q-35 57 -76 81.5t-82 24.5q-86 0 -137 -98t-51 -283 q0 -178 50 -282.5t142 -104.5q59 0 95 42t59 108l37 -29q-31 -92 -84.5 -136t-114.5 -44q-53 0 -98 31.5t-78 91t-51.5 142.5t-18.5 185z" />
<glyph unicode="&#x28;R&#x29;" horiz-adv-x="1005" d="M68 782q0 156 28.5 300.5t84 257t136 180t185.5 67.5q104 0 185 -67.5t137.5 -180t85 -258t28.5 -299.5t-28.5 -298t-85 -256.5t-137.5 -180t-185 -67.5q-106 2 -187.5 70.5t-136.5 181t-82.5 256t-27.5 294.5zM127 784q0 -145 23.5 -279t71.5 -237.5t118 -166t162 -62.5 q90 0 159.5 61.5t117.5 164t73 236.5t25 281t-25 282.5t-73 238t-117.5 164t-159.5 61.5t-161 -61.5t-118 -164t-71.5 -236.5t-24.5 -282zM344 348v862h172q80 0 115 -64.5t35 -164.5q0 -88 -27 -146.5t-86 -72.5l180 -414h-61l-178 410h-91v-410h-59zM403 817h113 q45 0 67.5 44t22.5 122t-22.5 123t-67.5 45h-113v-334z" />
<glyph horiz-adv-x="0" />
<glyph horiz-adv-x="0" />
<glyph unicode="&#xd;" horiz-adv-x="356" />
<glyph horiz-adv-x="288" />
<glyph unicode=" "  horiz-adv-x="356" />
<glyph unicode="&#x09;" horiz-adv-x="356" />
<glyph unicode="&#xa0;" horiz-adv-x="356" />
<glyph unicode="!" horiz-adv-x="290" d="M98 0v231h92v-231h-92zM100 1567h90l-18 -1147h-53z" />
<glyph unicode="&#x22;" horiz-adv-x="358" d="M59 1055zM59 1567h86l-14 -512h-55zM213 1567h86l-14 -512h-55z" />
<glyph unicode="#" horiz-adv-x="876" d="M80 496v69h170l35 482h-168v67h172l33 453h65l-33 -453h209l33 453h70l-33 -453h160v-67h-164l-35 -482h166v-69h-170l-35 -496h-70l35 496h-209l-35 -496h-65l35 496h-166zM315 565h209l35 482h-209z" />
<glyph unicode="$" horiz-adv-x="876" d="M147 268l23 76q57 -53 123.5 -76.5t126.5 -29.5v518q-29 10 -55.5 19t-49.5 22q-35 16 -64.5 37.5t-51 55.5t-33.5 80t-12 111q0 164 73.5 242t192.5 82v246h61v-248q131 -16 240 -111l-23 -75q-55 41 -108 67.5t-109 34.5v-500q39 -10 72 -22.5t49 -20.5 q78 -35 113 -103.5t35 -176.5q0 -160 -70 -247t-199 -93v-240h-61v242q-63 6 -138 30.5t-135 79.5zM242 1075q0 -96 28.5 -139t85.5 -70q16 -8 31.5 -14t32.5 -12v483q-80 -4 -129 -60.5t-49 -187.5zM481 238q180 14 181 258q0 78 -22 132t-85 83q-14 6 -32.5 12t-41.5 14 v-499z" />
<glyph unicode="%" horiz-adv-x="1075" d="M67 1124q0 84 13.5 164t38 141.5t60.5 98t83 36.5t84 -36.5t61.5 -98t37.5 -141.5t13 -166q0 -84 -13 -164t-37.5 -141.5t-61.5 -99t-84 -37.5t-84 39t-61.5 100t-37 141t-12.5 164zM68 0zM135 1124q0 -74 8 -139.5t24.5 -115.5t41 -78.5t55.5 -28.5t55.5 29.5t39.5 78.5 t23.5 114.5t8.5 137.5t-8.5 137.5t-23.5 115.5t-39.5 80t-55.5 30t-55.5 -29t-41 -78t-24.5 -114.5t-8 -139.5zM172 -33l678 1667l55 -35l-678 -1667zM618 432q0 84 13.5 164t38 141.5t60.5 98t83 36.5t84 -36.5t61.5 -98t37.5 -141.5t13 -166q0 -84 -13 -164t-37.5 -141.5 t-61.5 -99t-84 -37.5t-84 39t-61.5 100t-37 141t-12.5 164zM686 432q0 -74 8 -139.5t24.5 -115.5t41 -78.5t55.5 -28.5t55.5 29.5t39.5 78.5t23.5 114.5t8.5 137.5t-8.5 137.5t-23.5 115.5t-39.5 80t-55.5 30t-55.5 -29t-41 -78t-24.5 -114.5t-8 -139.5z" />
<glyph unicode="&#x26;" horiz-adv-x="823" d="M45 371q0 82 16.5 145.5t43 112.5t62.5 87t73 70q-53 86 -95.5 189.5t-42.5 238.5q0 80 16.5 149t47.5 118t74 77.5t96 28.5q45 0 86 -21.5t71.5 -66.5t49 -114.5t18.5 -163.5q0 -86 -16.5 -149.5t-46 -116t-72.5 -97.5t-96 -92l209 -320l65 336h80l-86 -428l231 -354 h-86l-165 260q-35 -123 -99.5 -201.5t-165.5 -78.5q-55 0 -104 25.5t-85 75.5t-57.5 123t-21.5 167zM125 385q0 -147 54 -234.5t138 -87.5q139 0 203 285l-239 375q-35 -31 -64 -63.5t-49.5 -71.5t-31.5 -88t-11 -115zM174 1206q0 -111 33 -202t82 -173q45 39 82 74t62.5 76 t38.5 95t13 132q0 141 -43 218t-108 77q-39 0 -68.5 -24.5t-50 -65.5t-31 -94.5t-10.5 -112.5z" />
<glyph unicode="'" horiz-adv-x="206" d="M59 1567h86l-14 -512h-55z" />
<glyph unicode="(" horiz-adv-x="487" d="M137 782q0 338 22.5 558.5t62.5 353.5t93.5 196.5t114.5 87.5v-75q-51 -29 -92 -95.5t-70.5 -194.5t-46 -327t-16.5 -487q0 -287 16.5 -491t45 -339t70.5 -207.5t93 -99.5v-76q-61 25 -114.5 88.5t-93.5 197.5t-62.5 353t-22.5 557z" />
<glyph unicode=")" horiz-adv-x="487" d="M57 -338q49 25 90 93.5t71 200.5t47.5 339t17.5 508q0 279 -15.5 474.5t-44 325.5t-70.5 200.5t-96 99.5v75q61 -25 115.5 -88t94.5 -196t62.5 -353.5t22.5 -558.5t-22.5 -557t-62.5 -353t-94 -197.5t-116 -88.5v76z" />
<glyph unicode="*" horiz-adv-x="641" d="M61 1106l215 86l-184 223l33 70l178 -254l-12 405h59l-12 -405l176 254l33 -70l-185 -223l218 -86l-17 -78l-211 121l99 -363l-52 -34l-77 374l-80 -374l-56 34l103 363l-211 -123z" />
<glyph unicode="+" d="M162 768v74h239v442h68v-442h242v-74h-242v-446h-68v446h-239z" />
<glyph unicode="," horiz-adv-x="290" d="M98 0v231h92v-43l-49 -487h-37l17 299h-23z" />
<glyph unicode="-" horiz-adv-x="391" d="M29 516v76h331v-76h-331z" />
<glyph unicode="." horiz-adv-x="290" d="M98 0v231h92v-231h-92z" />
<glyph unicode="/" horiz-adv-x="458" d="M-4 -229l399 1943h68l-400 -1943h-67z" />
<glyph unicode="0" d="M72 786q0 154 23.5 298.5t69.5 256t113.5 179t155.5 67.5t156.5 -67.5t115 -180t71 -258t24.5 -299.5t-24.5 -298t-71 -256.5t-115 -180t-156.5 -67.5t-155.5 68.5t-113.5 182t-69.5 258t-23.5 297.5zM162 784q0 -141 18.5 -269t53 -225t86 -154.5t116.5 -57.5 q66 0 117 57.5t87 154.5t54.5 224t18.5 268t-18.5 269.5t-54.5 225.5t-87 154.5t-117 57.5t-117 -56.5t-85.5 -153.5t-53 -225t-18.5 -270z" />
<glyph unicode="1" horiz-adv-x="493" d="M20 1032l359 555h18v-1587h-90v1333l-229 -362z" />
<glyph unicode="2" horiz-adv-x="731" d="M57 0v27q135 184 229.5 330.5t155 273.5t88 241.5t27.5 231.5q0 82 -13.5 152.5t-41 123t-70.5 81t-102 28.5t-109.5 -33t-107.5 -110l-37 77q53 72 116.5 118t155.5 46q147 0 223 -124t76 -339q0 -125 -27.5 -245.5t-83 -244.5t-139.5 -256t-196 -280h452v-98h-596z" />
<glyph unicode="3" horiz-adv-x="751" d="M68 240l47 61q53 -111 111.5 -167t135.5 -56q61 0 106.5 32.5t76 87t46 124t15.5 143.5q0 141 -54 230t-157 89h-73v82h79q47 0 82 27t57.5 71t33 99t10.5 111q0 141 -60.5 228t-158.5 87q-117 0 -213 -139l-46 75q55 76 121 119t148 43q63 0 117.5 -28.5t92.5 -81 t59.5 -127t21.5 -164.5q0 -117 -36 -213t-106 -144q74 -41 121 -130t47 -246q0 -113 -25.5 -201t-68.5 -148.5t-101.5 -92t-125.5 -31.5q-55 0 -100.5 20t-82 56t-66.5 83t-54 101z" />
<glyph unicode="4" horiz-adv-x="761" d="M27 475v27l544 1085h15v-1030h147v-82h-147v-475h-82v475h-477zM131 557h373v754z" />
<glyph unicode="5" horiz-adv-x="782" d="M70 240l47 61q47 -111 111.5 -167t142.5 -56q63 0 111 36t81 99t50.5 150.5t17.5 191.5q0 123 -22.5 213t-58.5 149.5t-83 89t-96 29.5q-92 0 -168 -104l-2 -2q-35 -51 -68 -127l-20 8l47 756h510v-99h-434l-29 -450q78 94 184 94q61 0 119.5 -32.5t106 -101.5t76 -174.5 t28.5 -250.5q0 -121 -21.5 -225.5t-63.5 -182t-104.5 -121.5t-144.5 -44q-106 0 -188 71.5t-129 188.5z" />
<glyph unicode="6" horiz-adv-x="815" d="M68 713q0 160 20.5 315.5t64.5 280.5t115.5 201.5t175.5 76.5q72 0 137.5 -34.5t106.5 -88.5l-33 -82q-47 57 -102 82t-102 25q-68 0 -119 -46t-86 -125t-55.5 -183.5t-28.5 -221.5q53 86 118.5 143.5t153.5 57.5q61 0 117.5 -32.5t99.5 -98t70 -166t27 -237.5 q0 -127 -24 -237t-69 -190.5t-107.5 -126.5t-141.5 -46q-74 0 -136.5 44t-106.5 134t-69.5 228t-25.5 327zM156 723q0 -336 70.5 -490.5t181.5 -154.5q57 0 104 38t80 105.5t50 158.5t17 200q0 117 -20.5 202.5t-53 142t-74.5 83t-85 26.5q-74 0 -145.5 -64.5t-124.5 -152.5 v-94z" />
<glyph unicode="7" horiz-adv-x="661" d="M33 1468v99h612v-29l-420 -1538h-92l408 1468h-508z" />
<glyph unicode="8" horiz-adv-x="770" d="M59 420q0 94 21.5 166.5t56.5 128t79 95.5t91 69q-39 25 -74.5 54.5t-63.5 70t-44 96t-16 133.5q0 90 22.5 156.5t60 110.5t87 65.5t102.5 21.5q51 0 101 -20.5t89 -63.5t63.5 -109.5t24.5 -160.5q0 -80 -18 -137.5t-48 -99.5t-67 -69.5t-75 -49.5q45 -29 92 -69 t84 -95.5t60.5 -128t23.5 -164.5q0 -96 -24.5 -176t-70 -139.5t-105.5 -92t-132 -32.5q-70 0 -128 31.5t-101.5 89t-67 138t-23.5 181.5zM145 432q0 -82 18.5 -147.5t49.5 -111.5t74 -70.5t92 -24.5t93 23.5t78 69.5t54.5 111.5t20.5 151.5q0 88 -21.5 151.5t-56.5 110.5 t-79 80t-89 60q-39 -23 -80 -53.5t-75 -78t-56.5 -114t-22.5 -158.5zM188 1225q0 -74 17.5 -124t44 -84t60.5 -57.5t69 -41.5q31 16 66.5 39.5t65.5 59.5t49.5 89t19.5 127q0 68 -16.5 118t-44 83.5t-64.5 50t-76 16.5q-84 0 -137.5 -72.5t-53.5 -203.5z" />
<glyph unicode="9" horiz-adv-x="800" d="M43 1010q0 133 26.5 239.5t75 182t115 115.5t143.5 40q82 0 143.5 -43t103.5 -120.5t63.5 -186.5t21.5 -238q0 -139 -23.5 -278t-65.5 -268t-98 -244t-122 -209h-100q96 133 165.5 287.5t110.5 322.5q-47 -51 -112.5 -93t-141.5 -42q-68 0 -123 38t-96 107.5t-63.5 169 t-22.5 220.5zM133 1010q0 -203 63.5 -323t174.5 -120q72 0 137 51.5t119 122.5q10 63 15 126t5 128q0 111 -15.5 202t-46 155.5t-76.5 100.5t-106 36q-57 0 -106 -33t-86 -94.5t-57.5 -150.5t-20.5 -201z" />
<glyph unicode=":" horiz-adv-x="290" d="M98 119v231h92v-231h-92zM98 119zM98 696v231h92v-231h-92z" />
<glyph unicode=";" horiz-adv-x="290" d="M98 0zM98 119v231h92v-43l-49 -487h-37l17 299h-23zM98 696v231h92v-231h-92z" />
<glyph unicode="&#x3c;" d="M162 791v26l549 445v-84l-461 -373l461 -373v-84z" />
<glyph unicode="=" d="M162 494v73h549v-73h-549zM162 1044v74h549v-74h-549z" />
<glyph unicode="&#x3e;" d="M162 348v84l461 373l-461 373v84l549 -445v-26z" />
<glyph unicode="?" horiz-adv-x="598" d="M23 1434q37 57 94 105t147 48q66 0 118 -28.5t89 -82t56.5 -127t19.5 -161.5q0 -92 -18.5 -166t-47 -135.5t-62.5 -115.5t-62.5 -109.5t-49 -114t-22.5 -127.5h-68q0 76 18.5 136t46 114.5t59.5 105.5t59.5 109.5t46 128t18.5 160.5q0 150 -54.5 237.5t-154.5 87.5 q-72 0 -116 -41t-79 -94zM205 0v231h92v-231h-92z" />
<glyph unicode="@" horiz-adv-x="890" d="M68 506q0 168 25.5 316.5t77.5 259t129 174t179 63.5q76 0 130.5 -36t90 -98.5t52 -147.5t16.5 -183v-668h-66v90q-35 -45 -69.5 -70.5t-81.5 -25.5q-84 0 -133 85t-49 259q0 170 49 257t135 87q47 0 81 -24.5t68 -65.5v76q0 88 -12 160.5t-39.5 125t-70.5 81t-103 28.5 q-84 0 -147.5 -57t-105.5 -156.5t-63.5 -235.5t-21.5 -292q0 -166 23.5 -307.5t73 -246t123 -163.5t171.5 -59q92 0 168 54t129 175l43 -43q-53 -127 -142 -194.5t-202 -67.5t-197.5 65.5t-143 180t-88 269.5t-29.5 335zM434 524q0 -139 33 -208.5t90 -69.5q41 0 76 29.5 t69 76.5v359q-39 43 -70.5 66.5t-68.5 23.5q-63 0 -96 -71t-33 -206z" />
<glyph unicode="A" horiz-adv-x="892" d="M16 0l420 1587h19l422 -1587h-97l-139 543h-395l-137 -543h-93zM264 616h359l-179 705z" />
<glyph unicode="B" horiz-adv-x="835" d="M98 0v1567h375q78 0 131 -34t87 -90.5t49.5 -129t15.5 -150.5q0 -137 -38 -210.5t-85 -108.5q55 -39 103 -138.5t48 -259.5q0 -86 -17 -166.5t-52 -143t-88.5 -99.5t-124.5 -37h-404zM188 98h304q51 0 90 29t64.5 78t37.5 112.5t12 135.5t-12 136t-35.5 112.5t-56.5 76 t-72 27.5h-332v-707zM188 877h330q74 0 114 77.5t40 198.5q0 61 -11.5 118.5t-36 101.5t-63.5 69.5t-94 25.5h-279v-591z" />
<glyph unicode="C" horiz-adv-x="923" d="M68 795q0 184 33.5 330.5t93 249t142.5 157.5t181 55q106 0 192.5 -60.5t151.5 -158.5l-53 -80q-61 92 -131 146.5t-158 54.5q-80 0 -146.5 -48t-114.5 -137.5t-74.5 -219.5t-26.5 -291q0 -166 27.5 -298.5t74.5 -224.5t112.5 -142t143.5 -50q84 0 165 67.5t124 219.5 l65 -56q-53 -168 -150 -248.5t-208 -80.5q-96 0 -177 58t-140.5 164.5t-93 257t-33.5 335.5z" />
<glyph unicode="D" horiz-adv-x="911" d="M98 0v1567h279q125 0 214 -67.5t145.5 -177.5t82 -249t25.5 -282t-25.5 -284.5t-81 -254.5t-144.5 -182.5t-216 -69.5h-279zM188 98h199q96 0 166 55.5t114 149.5t65.5 219t21.5 264q0 137 -21.5 260t-65.5 217.5t-114 149.5t-166 55h-199v-1370z" />
<glyph unicode="E" horiz-adv-x="788" d="M98 0v1567h611v-99h-521v-616h514v-94h-514v-660h523v-98h-613z" />
<glyph unicode="F" horiz-adv-x="743" d="M98 0v1567h584v-99h-494v-665h488v-94h-488v-709h-90z" />
<glyph unicode="G" horiz-adv-x="987" d="M68 799q0 201 37.5 349t102 245.5t146.5 145.5t172 48q98 0 183.5 -51t150.5 -139l-45 -84q-68 92 -141.5 134t-145.5 42q-74 0 -141.5 -43t-118.5 -130t-80.5 -217t-29.5 -304q0 -162 26.5 -294t73.5 -226.5t111.5 -145.5t142.5 -51t138.5 51t102.5 138t64.5 203 t22.5 245v30.5t-2 26.5h-297v86h377q6 -61 6 -135q0 -156 -30 -292t-83 -236.5t-130 -157.5t-171 -57t-175 58t-140.5 165.5t-93 258t-33.5 337.5z" />
<glyph unicode="H" horiz-adv-x="884" d="M98 0v1567h90v-717h508v717h88v-1567h-88v758h-508v-758h-90z" />
<glyph unicode="I" horiz-adv-x="290" d="M98 0v1567h90v-1567h-90z" />
<glyph unicode="J" horiz-adv-x="565" d="M20 66l11 94q59 -51 97 -66.5t67 -15.5q84 0 138 97t54 296v1096h90v-1112q0 -238 -73.5 -356.5t-186.5 -118.5q-45 0 -95 20t-102 66z" />
<glyph unicode="K" horiz-adv-x="862" d="M98 0v1567h92v-793l531 793h98l-366 -549l381 -1018h-105l-342 924l-197 -295v-629h-92z" />
<glyph unicode="L" horiz-adv-x="686" d="M98 0v1567h92v-1469h463v-98h-555z" />
<glyph unicode="M" horiz-adv-x="1085" d="M98 0v1587h17l422 -1360l436 1360h14v-1587h-86v1108l-358 -1128h-15l-342 1118v-1098h-88z" />
<glyph unicode="N" horiz-adv-x="956" d="M98 0v1587h17l655 -1286v1266h90v-1587h-16l-658 1296v-1276h-88z" />
<glyph unicode="O" horiz-adv-x="1005" d="M68 784q0 154 28.5 299.5t84 257t136.5 179t185 67.5t185 -67.5t137.5 -180t85 -258t28.5 -299.5t-28.5 -299t-85 -256.5t-138.5 -179t-186 -67.5q-106 0 -187.5 68.5t-135.5 182t-81.5 258t-27.5 295.5zM158 784q0 -143 22.5 -271t65.5 -225.5t107.5 -153.5t148.5 -56 q82 0 146.5 57.5t109.5 153.5t67.5 224t22.5 269t-22.5 269.5t-67.5 225.5t-109.5 153.5t-148.5 56.5t-147.5 -56.5t-106.5 -152.5t-65.5 -224t-22.5 -270z" />
<glyph unicode="P" horiz-adv-x="784" d="M98 0v1567h351q72 0 126 -38t89.5 -101.5t53 -146.5t17.5 -173q0 -86 -16.5 -169t-52 -147.5t-90 -104.5t-127.5 -40h-259v-647h-92zM190 741h261q51 0 89 32t62.5 83t36.5 116.5t12 133.5t-12 133.5t-36.5 115.5t-62.5 81.5t-89 31.5h-261v-727z" />
<glyph unicode="Q" horiz-adv-x="1005" d="M68 801q0 152 28.5 293t84 250.5t136 176t185.5 66.5q104 0 185 -66.5t137.5 -176t85 -252t28.5 -291.5q0 -190 -46 -363.5t-132 -283.5l119 -304h-88l-95 238q-85 -74 -196 -74q-106 0 -187.5 68t-135.5 178.5t-81.5 251.5t-27.5 289zM158 803q0 -133 22.5 -258 t65.5 -221.5t107.5 -153.5t148.5 -57q86 0 160 67l-148 377h90l117 -301q59 98 92 240.5t33 304.5q0 135 -22.5 259t-66.5 219t-108.5 152.5t-146.5 57.5t-146.5 -56.5t-108.5 -151.5t-66.5 -219t-22.5 -259z" />
<glyph unicode="R" horiz-adv-x="833" d="M98 0v1567h334q70 0 122 -37t87 -97.5t51.5 -139.5t16.5 -160q0 -66 -10.5 -129.5t-32 -118t-54 -96t-77.5 -64.5l276 -725h-100l-258 700h-21h-244v-700h-90zM188 778h236q49 0 86 29t61.5 77t35.5 110.5t11 127.5q0 68 -12 130.5t-35.5 110.5t-60.5 76.5t-86 28.5h-236 v-690z" />
<glyph unicode="S" horiz-adv-x="806" d="M61 125l29 88q78 -76 166 -107.5t154 -31.5q61 0 107 24.5t77 68.5t46 105.5t15 133.5q0 98 -29.5 167.5t-101.5 110.5q-23 12 -56.5 27.5t-70.5 33t-73.5 35t-67.5 35.5q-82 49 -134 134t-52 233q0 195 90 300t237 105q168 0 316 -143l-29 -90q-72 68 -143.5 103.5 t-143.5 35.5q-109 0 -173 -84t-64 -240q0 -115 36.5 -174t104.5 -100t145.5 -71.5t131.5 -63.5q90 -53 128.5 -144.5t38.5 -212.5q0 -94 -22.5 -171.5t-64.5 -134t-103 -87t-141 -30.5q-35 0 -79 7t-91 23.5t-94.5 44t-88.5 70.5z" />
<glyph unicode="T" horiz-adv-x="745" d="M33 1468v99h680v-99h-295v-1468h-92v1468h-293z" />
<glyph unicode="U" horiz-adv-x="872" d="M88 614v953h90v-949q0 -127 13.5 -226t44 -169.5t80 -107.5t120.5 -37q135 0 197.5 133t62.5 407v949h88v-951q0 -328 -90 -482t-258 -154q-180 0 -264 163.5t-84 470.5z" />
<glyph unicode="V" horiz-adv-x="892" d="M16 1567h97l333 -1325l336 1325h95l-422 -1587h-19z" />
<glyph unicode="W" horiz-adv-x="1275" d="M20 1567h95l223 -1266l297 1286h16l279 -1294l235 1274h88l-313 -1587h-16l-285 1300l-301 -1300h-14z" />
<glyph unicode="X" horiz-adv-x="849" d="M20 0l351 813l-326 754h94l291 -664l295 664h92l-342 -768l350 -799h-100l-307 707l-303 -707h-95z" />
<glyph unicode="Y" horiz-adv-x="872" d="M6 1567h100l330 -750l334 750h94l-381 -846v-721h-90v719z" />
<glyph unicode="Z" horiz-adv-x="856" d="M51 0v27l631 1441h-621v99h746v-29l-629 -1440h621v-98h-748z" />
<glyph unicode="[" horiz-adv-x="487" d="M172 -414v2392h258v-71h-188v-2247h188v-74h-258z" />
<glyph unicode="\" horiz-adv-x="458" d="M-4 1714h67l400 -1943h-68z" />
<glyph unicode="]" horiz-adv-x="487" d="M57 -340h189v2247h-189v71h256v-2392h-256v74z" />
<glyph unicode="^" horiz-adv-x="876" d="M174 625l254 962h14l258 -962h-69l-195 761l-194 -761h-68z" />
<glyph unicode="_" horiz-adv-x="550" d="M0 -160h551v-73h-551v73z" />
<glyph unicode="`" horiz-adv-x="444" d="M94 1290h82l176 -321h-67z" />
<glyph unicode="a" horiz-adv-x="624" d="M47 233q0 111 40 169.5t118 78.5l260 66v2q0 135 -35 193.5t-137 58.5q-41 0 -87 -13.5t-110 -64.5l-16 72q66 53 123 68.5t104 15.5q133 0 187.5 -78t54.5 -238v-563h-80v96q-59 -53 -114.5 -84.5t-121.5 -31.5q-92 0 -139 67.5t-47 185.5zM125 244q0 -92 32 -143.5 t95 -51.5q53 0 107.5 32t105.5 77v329l-236 -65q-66 -18 -85 -68.5t-19 -109.5z" />
<glyph unicode="b" horiz-adv-x="708" d="M98 0v1567h84v-819q18 18 43 40.5t54.5 42t63.5 34t69 14.5q57 0 99 -37t70.5 -99.5t43 -145.5t14.5 -173q0 -86 -13.5 -167t-40 -142.5t-68.5 -98t-97 -36.5q-35 0 -70 13t-65.5 32.5t-57 43t-45.5 42.5v-111h-84zM182 184q16 -16 41 -37.5t52.5 -41t58.5 -33t59 -13.5 q80 0 122 101.5t42 265.5q0 166 -43 269.5t-123 103.5q-31 0 -62.5 -14.5t-59 -34t-50 -41t-37.5 -35.5v-490z" />
<glyph unicode="c" horiz-adv-x="598" d="M68 430q0 102 21.5 185t58 141.5t86 90.5t104.5 32q113 0 203 -115l-41 -62q-39 57 -78 78t-74 21q-86 0 -142 -99.5t-56 -271.5q0 -72 11 -139.5t34.5 -119.5t60.5 -83t86 -31q59 0 98 45t66 117l45 -41q-31 -86 -84 -142t-135 -56q-66 0 -116 37.5t-83 100t-49 144.5 t-16 168z" />
<glyph unicode="d" horiz-adv-x="708" d="M68 426q0 90 14 172t43 144.5t71 99.5t99 37q35 0 67.5 -13.5t62.5 -33t55.5 -42t43.5 -42.5v819h84v-1567h-82v111q-18 -20 -45.5 -43t-58.5 -42.5t-65.5 -32.5t-67.5 -13q-55 0 -97 35.5t-70 97t-41 142.5t-13 171zM152 424q0 -160 40.5 -262.5t120.5 -102.5 q29 0 59.5 13.5t59.5 33t52.5 41t39.5 37.5v490q-16 16 -38.5 37.5t-50 41t-58.5 33t-60 13.5q-80 0 -122.5 -104.5t-42.5 -270.5z" />
<glyph unicode="e" horiz-adv-x="661" d="M68 422q0 86 16 169t50 146.5t85 102.5t121 39q68 0 117 -38t79.5 -99.5t45 -139.5t14.5 -158v-41h-446q2 -68 13 -130t36.5 -110t65.5 -78t100 -30q80 0 167 70l21 -68q-33 -33 -86 -55t-113 -22q-78 0 -132 37.5t-89 100t-50 141.5t-15 163zM150 465h364 q0 61 -10 122.5t-31.5 108.5t-54.5 77t-80 30q-43 0 -77 -26.5t-57.5 -73t-37.5 -107.5t-16 -131z" />
<glyph unicode="f" horiz-adv-x="407" d="M41 780v76h84v469q0 76 12.5 126t35 81t51 43t63.5 12t63.5 -11t50.5 -30l-24 -69q-30 30 -69 30h-3q-45 0 -70.5 -40t-25.5 -144v-467h151v-76h-151v-780h-84v780h-84z" />
<glyph unicode="g" horiz-adv-x="675" d="M63 446q0 86 13.5 164t41 138.5t68.5 95.5t97 35q33 0 66.5 -13.5t63 -32t55.5 -41t42 -40.5v104h82v-876q0 -82 -14.5 -156t-46 -129t-83 -88t-122.5 -33q-59 0 -115.5 21.5t-101.5 60.5l20 74q53 -43 97 -59.5t85 -16.5q55 0 93 26.5t61.5 71.5t33 104.5t9.5 127.5v155 q-16 -18 -41 -39.5t-53.5 -40t-61.5 -31t-67 -12.5q-55 0 -96.5 34t-69 92.5t-42 137t-14.5 166.5zM147 444q0 -160 41 -256t119 -96q29 0 57.5 12.5t55 30t49.5 36.5t39 36v469q-16 16 -39 37.5t-50.5 40t-57 32t-58.5 13.5q-39 0 -67.5 -27t-48 -74t-30 -112.5 t-10.5 -141.5z" />
<glyph unicode="h" horiz-adv-x="698" d="M98 0v1567h84v-819q18 20 45 43.5t61 43t72.5 32t79.5 12.5q92 0 136.5 -78t44.5 -275v-526h-84v520q0 158 -31 218.5t-92 60.5q-33 0 -68 -13.5t-65.5 -32t-56 -41t-42.5 -40.5v-672h-84z" />
<glyph unicode="i" horiz-adv-x="280" d="M92 1120v236h94v-236h-94zM98 0v856h82v-856h-82z" />
<glyph unicode="j" horiz-adv-x="337" d="M-33 -385l19 68q16 -16 34.5 -22.5t34.5 -6.5q47 0 75 44t28 165v993h84v-999q0 -80 -13.5 -134.5t-36 -87t-53 -47t-65.5 -14.5q-66 0 -107 41zM154 1120v236h92v-236h-92z" />
<glyph unicode="k" horiz-adv-x="661" d="M98 0v1567h86v-1147l326 436h90l-215 -287l242 -569h-92l-205 496l-146 -195v-301h-86z" />
<glyph unicode="l" horiz-adv-x="280" d="M98 0v1567h84v-1567h-84z" />
<glyph unicode="m" horiz-adv-x="995" d="M92 0v856h84v-108q39 47 94.5 89t128.5 42q111 0 136 -138q53 66 111.5 102t123.5 36q80 0 114 -62.5t34 -204.5v-612h-84v604q0 106 -20.5 150.5t-70.5 44.5q-53 0 -106 -39t-94 -92q2 -12 2 -25.5v-28.5v-614h-84v604q0 104 -20.5 149.5t-69.5 45.5q-29 0 -56.5 -12.5 t-53 -31t-48.5 -41t-37 -42.5v-672h-84z" />
<glyph unicode="n" horiz-adv-x="690" d="M92 0v856h84v-108q41 47 108.5 89t149.5 42q45 0 79 -17.5t56.5 -58.5t32.5 -108.5t10 -168.5v-526h-84v520q0 156 -28.5 217.5t-91.5 61.5q-35 0 -69 -13.5t-65.5 -32t-57.5 -41t-40 -40.5v-672h-84z" />
<glyph unicode="o" horiz-adv-x="659" d="M68 428q0 86 17 167t51 144.5t83 101.5t113 38q63 0 112.5 -39t82 -101.5t50 -144.5t17.5 -168t-17.5 -167t-51 -142.5t-82 -99t-111.5 -37.5t-112.5 37.5t-83.5 100t-51 143.5t-17 167zM152 428q0 -74 11 -141.5t34.5 -117.5t57.5 -81t77 -31t76.5 30t57 81t35 118.5 t11.5 141.5t-11.5 141.5t-35 118.5t-57 82t-76.5 31t-77 -31t-56.5 -82t-34.5 -118.5t-12 -141.5z" />
<glyph unicode="p" horiz-adv-x="702" d="M92 -414v1270h84v-111q18 18 45 42t57.5 44.5t64.5 34t69 13.5q55 0 97 -37t69.5 -99.5t41 -143.5t13.5 -169q0 -90 -14.5 -172t-43 -143.5t-70.5 -98t-99 -36.5q-35 0 -67 12t-61.5 30.5t-55 41t-46.5 42.5v-520h-84zM176 182q16 -16 40 -37.5t51.5 -40t57 -32 t58.5 -13.5q82 0 124 101.5t42 267.5q0 82 -10.5 149.5t-31 116.5t-51 77t-69.5 28q-29 0 -59.5 -13.5t-58 -33t-52 -41t-41.5 -39.5v-490z" />
<glyph unicode="q" horiz-adv-x="702" d="M68 430q0 88 13 170t41 143.5t69.5 98.5t97.5 37q35 0 69.5 -13.5t66.5 -34t58.5 -44t44.5 -42.5v111h80v-1270h-84v520q-18 -18 -42.5 -40.5t-54.5 -41t-63.5 -31.5t-68.5 -13q-57 0 -99 36.5t-71 98t-43 143.5t-14 172zM150 428q0 -166 44 -267.5t123 -101.5 q29 0 60 13.5t58.5 32t50 40t38.5 37.5v490q-16 18 -39.5 39.5t-52.5 41t-59.5 33t-59.5 13.5q-41 0 -70.5 -28t-51 -77t-31.5 -117.5t-10 -148.5z" />
<glyph unicode="r" horiz-adv-x="577" d="M92 0v856h82v-194q35 88 87 152.5t124 64.5q47 0 91 -31t73 -94l-29 -62q-55 106 -139 107q-63 0 -110.5 -58.5t-94.5 -173.5v-567h-84z" />
<glyph unicode="s" horiz-adv-x="608" d="M59 66l19 71q53 -37 116.5 -60.5t118.5 -23.5q31 0 60.5 9.5t54.5 30t39 53t14 81.5q0 66 -25.5 97.5t-66.5 46.5q-25 8 -80 22.5t-106 36.5q-23 8 -46.5 23.5t-45 40t-35 59.5t-13.5 86q0 115 68 177.5t172 62.5q59 0 117.5 -21.5t111.5 -60.5l-20 -70 q-49 35 -102.5 55.5t-102.5 20.5q-72 0 -118 -43t-46 -125q0 -68 31 -101.5t78 -48.5q33 -10 86 -25.5t90 -31.5q59 -23 94 -66t35 -129q0 -68 -21.5 -115.5t-55.5 -78.5t-78 -45t-89 -14q-61 0 -127.5 23.5t-126.5 62.5z" />
<glyph unicode="t" horiz-adv-x="407" d="M41 780v76h84v404h84v-404h151v-76h-151v-514q0 -117 27.5 -162t70.5 -45q16 0 34.5 7.5t35.5 23.5l22 -67q-47 -43 -108 -43q-72 0 -119 61t-47 213v526h-84z" />
<glyph unicode="u" horiz-adv-x="710" d="M98 330v526h84v-520q0 -158 31 -217.5t92 -59.5q33 0 68 12.5t66.5 31t57 40t40.5 39.5v674h84v-856h-82v109q-18 -23 -46 -45.5t-62 -41t-73 -30.5t-77 -12q-94 0 -138.5 79.5t-44.5 270.5z" />
<glyph unicode="v" horiz-adv-x="614" d="M16 856h86l205 -674l207 674h82l-281 -876h-16z" />
<glyph unicode="w" horiz-adv-x="854" d="M20 856h82l134 -647l188 670h16l176 -666l140 643h78l-207 -876h-15l-182 684l-194 -684h-15z" />
<glyph unicode="x" horiz-adv-x="612" d="M23 0l237 446l-215 410h90l180 -342l181 342h84l-222 -420l232 -436h-92l-197 369l-195 -369h-83z" />
<glyph unicode="y" horiz-adv-x="608" d="M16 856h86l199 -659l209 659h82l-406 -1270h-80l156 492z" />
<glyph unicode="z" horiz-adv-x="589" d="M51 0v27l383 749h-373v80h480v-27l-381 -749h375v-80h-484z" />
<glyph unicode="{" horiz-adv-x="489" d="M72 770v74h53q31 0 49.5 48t18.5 126v655q0 152 48 228.5t130 76.5h61v-71h-53q-59 0 -88 -63.5t-29 -182.5l-2 -655q0 -68 -17.5 -119t-49.5 -80q33 -29 50 -80t17 -119l2 -704q0 -119 28.5 -181.5t88.5 -62.5h53v-74h-61q-82 0 -130 77t-48 228v705q0 78 -18.5 126 t-49.5 48h-53z" />
<glyph unicode="|" horiz-adv-x="442" d="M190 -211v1989h70v-1989h-70z" />
<glyph unicode="}" horiz-adv-x="489" d="M57 -340h54q57 0 86.5 62.5t29.5 181.5v704q0 68 17.5 119t52.5 80q-35 29 -52.5 80t-17.5 119v655q0 119 -29.5 182.5t-86.5 63.5h-54v71h62q84 0 131 -76.5t47 -228.5v-655q0 -78 17.5 -126t45.5 -48h58v-74h-58q-29 0 -46 -48t-17 -126v-705q0 -152 -47 -228.5 t-131 -76.5h-62v74z" />
<glyph unicode="~" d="M162 766q35 59 73.5 93t86.5 34q29 0 58.5 -13.5t63.5 -37.5q25 -16 50.5 -33.5t60.5 -17.5q33 0 58.5 21.5t60.5 78.5l37 -45q-33 -59 -71 -94t-89 -35q-31 0 -57.5 13t-61.5 38q-31 23 -58.5 37t-58.5 14t-56.5 -22.5t-59.5 -81.5z" />
<glyph unicode="&#xa1;" horiz-adv-x="288" d="M96 -414l19 1147h53l18 -1147h-90zM96 922v231h92v-231h-92z" />
<glyph unicode="&#xa2;" d="M113 788q0 135 25.5 246t69.5 190t105.5 125t132.5 54v248h60v-248q72 -10 134 -53t112 -111l-50 -68q-47 74 -98 108t-98 40v-1077q59 10 109.5 64t89.5 163l55 -51q-39 -115 -104.5 -181.5t-149.5 -78.5v-242h-60v240q-76 6 -137 56t-105 134t-67.5 196.5t-23.5 245.5z M197 786q0 -115 17 -211t49 -167.5t78 -114.5t105 -51v1077q-111 -18 -180 -156.5t-69 -376.5z" />
<glyph unicode="&#xa3;" horiz-adv-x="876" d="M98 225q0 111 44 176.5t112 65.5q41 0 74.5 -23.5t62.5 -56.5q-4 94 -24.5 177t-44.5 163h-199v70h174q-29 88 -50.5 179t-21.5 202q0 92 18.5 166.5t51.5 129t80 84t104 29.5q63 0 124 -37t102 -108l-37 -74q-37 66 -82 93.5t-86 27.5q-78 0 -133.5 -86t-55.5 -240 q0 -98 21.5 -187t50.5 -179h264v-70h-244q27 -86 46.5 -173t19.5 -185q0 -53 -6 -99q45 -82 86 -137t94 -55q68 0 119 96l35 -74q-35 -63 -74 -91.5t-80 -28.5q-31 0 -58.5 16t-52 43t-47 61.5t-43.5 71.5q-25 -90 -72.5 -141t-107.5 -51q-68 0 -116 64.5t-48 180.5z M166 229q0 -88 28.5 -132t69.5 -44q53 0 83 64.5t40 158.5q-33 57 -61.5 88t-65.5 31q-43 0 -68.5 -43t-25.5 -123z" />
<glyph unicode="&#xa4;" horiz-adv-x="876" d="M141 274l99 175q-29 59 -43.5 134.5t-14.5 155.5q0 78 13.5 153t42.5 134l-97 172l39 53l92 -168q31 47 72 74t94 27q51 0 92 -27t72 -72l92 162l39 -51l-98 -170q57 -127 57 -289q0 -78 -14 -152.5t-43 -133.5l100 -172l-41 -52l-92 164q-33 -45 -74 -70.5t-94 -25.5 q-51 0 -91 25.5t-71 70.5l-94 -168zM248 737q0 -72 11 -139.5t34.5 -119.5t59.5 -84t83 -32q49 0 85 32t59.5 84t36 120t12.5 139q0 72 -12.5 139.5t-36 121t-59.5 86t-83 32.5t-83 -31.5t-59.5 -85t-35.5 -121t-12 -141.5z" />
<glyph unicode="&#xa5;" horiz-adv-x="876" d="M76 1567h90l272 -637l273 637h88l-318 -729v-183h224v-67h-224v-256h224v-68h-224v-264h-88v264h-215v68h215v256h-215v67h215v183z" />
<glyph unicode="&#xa6;" horiz-adv-x="442" d="M190 -211v782h70v-782h-70zM190 995v783h70v-783h-70z" />
<glyph unicode="&#xa7;" horiz-adv-x="962" d="M57 -279l29 89q78 -76 166 -108t154 -32q61 0 107 24.5t77 70t46 105.5t15 134q0 98 -29.5 165t-101.5 112q-59 37 -137 65.5t-148.5 77.5t-119.5 131t-49 225q0 131 43 222.5t118 138.5q0 225 90.5 335.5t237.5 110.5q168 0 315 -143l-28 -90q-72 68 -143.5 103.5 t-143.5 35.5q-109 0 -173.5 -84t-64.5 -240q0 -115 37 -174t105 -100t143.5 -70.5t132.5 -64.5q168 -104 168 -357q0 -131 -42 -228t-120 -148q0 -209 -86 -330t-245 -121q-35 0 -79 7t-91 23.5t-94.5 44t-88.5 70.5zM156 766q0 -115 36.5 -174.5t104.5 -99.5 q68 -41 146.5 -73t129.5 -63q61 -37 99.5 -95t54.5 -126q43 45 64.5 114.5t21.5 158.5q0 111 -32.5 173t-98.5 103q-53 33 -117.5 58.5t-128 60.5t-115 87t-75.5 142q-43 -41 -66.5 -107.5t-23.5 -158.5z" />
<glyph unicode="&#xa8;" horiz-adv-x="579" d="M125 1026v227h70v-227h-70zM385 1026v227h72v-227h-72z" />
<glyph unicode="&#xaa;" horiz-adv-x="397" d="M49 1098q0 72 24.5 109.5t84.5 56.5l112 34v5q0 82 -15 119.5t-65 37.5q-27 0 -50 -11t-56 -38l-16 55q37 35 68.5 46.5t60.5 11.5q72 0 103.5 -52.5t31.5 -158.5v-373h-62v47q-29 -29 -56.5 -45t-59.5 -16q-51 0 -78 45t-27 127zM113 1094q0 -113 59 -113 q25 0 49.5 15.5t48.5 41.5v215l-96 -34q-35 -12 -48 -42t-13 -83z" />
<glyph unicode="&#xab;" horiz-adv-x="618" d="M59 0zM59 414v22l211 410h60l-203 -422l203 -424h-60zM286 414v22l211 410h60l-203 -422l203 -424h-60z" />
<glyph unicode="&#xac;" horiz-adv-x="747" d="M98 768v74h549v-842h-67v768h-482z" />
<glyph unicode="&#xad;" horiz-adv-x="389" d="M27 516v76h331v-76h-331zM27 516z" />
<glyph unicode="&#xaf;" horiz-adv-x="593" d="M94 1106v65h408v-65h-408z" />
<glyph unicode="&#xb0;" horiz-adv-x="423" d="M45 1389q0 55 11.5 106t33 92t52 65.5t71.5 24.5q39 0 70.5 -24.5t52 -65.5t32 -93t11.5 -108q0 -53 -11.5 -105t-32 -93t-52 -66.5t-70.5 -25.5q-41 0 -71.5 25.5t-52 66.5t-33 94.5t-11.5 106.5zM102 1386q0 -43 6.5 -84.5t19.5 -74.5t32.5 -53.5t48.5 -20.5 q27 0 48.5 19.5t34.5 52t21.5 74.5t8.5 87t-6.5 87.5t-18.5 75t-32.5 52t-47.5 19.5q-29 0 -49.5 -19.5t-34.5 -52t-22.5 -74.5t-8.5 -88z" />
<glyph unicode="&#xb1;" d="M162 61v74h549v-74h-549zM162 61zM162 774v74h239v442h68v-442h242v-74h-242v-446h-68v446h-239z" />
<glyph unicode="&#xb2;" horiz-adv-x="493" d="M66 692v14q76 102 129 183.5t85.5 151t48 130t15.5 123.5q0 86 -27.5 138.5t-93.5 52.5q-31 0 -56.5 -16.5t-60.5 -57.5l-30 63q31 39 68.5 64.5t91.5 25.5q86 0 131 -69.5t45 -190.5q0 -66 -14.5 -128t-44 -126.5t-75 -133t-106.5 -144.5h244v-80h-350zM66 692z" />
<glyph unicode="&#xb3;" horiz-adv-x="493" d="M68 680zM68 821l36 49q29 -59 60 -83.5t72 -24.5q68 0 98.5 57t30.5 133q0 72 -26 117t-81 45h-45v59h45q51 0 70.5 48.5t19.5 103.5q0 72 -26.5 116t-83.5 44q-29 0 -60 -14.5t-57 -55.5l-31 63q35 41 72 63.5t84 22.5q78 0 123 -60t45 -159q0 -59 -19.5 -113.5 t-56.5 -82.5q41 -23 67.5 -73t26.5 -134q0 -123 -55 -192.5t-133 -69.5q-63 0 -105.5 42t-70.5 99z" />
<glyph unicode="&#xb4;" horiz-adv-x="444" d="M94 969l174 321h84l-192 -321h-66z" />
<glyph unicode="&#xb6;" horiz-adv-x="927" d="M55 1116q0 86 17.5 167t52.5 144.5t89 101.5t126 38h489v-1981h-71v1905h-269v-1905h-71v1082h-78q-74 0 -128 38.5t-89 101t-51.5 143.5t-16.5 165zM129 1116q0 -72 12.5 -138.5t38 -118.5t65.5 -84t95 -32h78v748h-78q-55 0 -94 -30.5t-65.5 -83t-39 -120t-12.5 -141.5 z" />
<glyph unicode="&#xb7;" horiz-adv-x="262" d="M98 698v231h92v-231h-92zM98 698z" />
<glyph unicode="&#xb8;" horiz-adv-x="370" d="M119 -414l63 351h70l-76 -351h-57z" />
<glyph unicode="&#xb9;" horiz-adv-x="495" d="M84 692zM84 1265l260 299h12v-872h-69v702l-164 -184z" />
<glyph unicode="&#xba;" horiz-adv-x="417" d="M59 1225q0 57 10.5 110.5t29 95.5t46 67.5t64.5 25.5t64.5 -25.5t46 -67.5t28.5 -96.5t10 -109.5q0 -57 -10 -111.5t-29.5 -95.5t-47 -66.5t-62.5 -25.5q-37 0 -64.5 25.5t-46 66.5t-29 95.5t-10.5 111.5zM123 1225q0 -47 5 -90t15.5 -76t26.5 -51.5t39 -18.5 q45 0 65.5 68.5t20.5 167.5q0 47 -5 90t-15.5 74.5t-26.5 50t-39 18.5t-39 -18.5t-26.5 -50t-15.5 -74.5t-5 -90z" />
<glyph unicode="&#xbb;" horiz-adv-x="618" d="M59 0l203 424l-203 422h62l209 -410v-22l-209 -414h-62zM59 0zM286 0l203 424l-203 422h62l209 -410v-22l-209 -414h-62z" />
<glyph unicode="&#xbc;" horiz-adv-x="1191" d="M84 0zM84 1265l260 299h12v-872h-69v702l-164 -184zM230 -33l678 1667l55 -35l-678 -1667zM694 246v14l317 612h11v-561h78v-65h-78v-246h-58v246h-270zM776 311h188v361z" />
<glyph unicode="&#xbd;" horiz-adv-x="1191" d="M84 0zM84 1265l260 299h12v-872h-69v702l-164 -184zM230 -33l678 1667l55 -35l-678 -1667zM764 0v14q76 102 129 183.5t85.5 151t48 130t15.5 123.5q0 86 -27.5 138.5t-93.5 52.5q-31 0 -56.5 -16.5t-60.5 -57.5l-30 63q31 39 68.5 64.5t91.5 25.5q86 0 131 -69.5 t45 -190.5q0 -66 -14.5 -128t-44 -126.5t-75 -133t-106.5 -144.5h244v-80h-350z" />
<glyph unicode="&#xbe;" horiz-adv-x="1189" d="M68 0zM68 821l36 49q29 -59 60 -83.5t72 -24.5q68 0 98.5 57t30.5 133q0 72 -26 117t-81 45h-45v59h45q51 0 70.5 48.5t19.5 103.5q0 72 -26.5 116t-83.5 44q-29 0 -60 -14.5t-57 -55.5l-31 63q35 41 72 63.5t84 22.5q78 0 123 -60t45 -159q0 -59 -19.5 -113.5 t-56.5 -82.5q41 -23 67.5 -73t26.5 -134q0 -123 -55 -192.5t-133 -69.5q-63 0 -105.5 42t-70.5 99zM230 -33l678 1667l55 -35l-678 -1667zM694 246v14l317 612h11v-561h78v-65h-78v-246h-58v246h-270zM776 311h188v361z" />
<glyph unicode="&#xbf;" horiz-adv-x="598" d="M37 -27q0 137 40 235.5t88 181.5t89 165t45 186h68q0 -76 -18.5 -136t-46.5 -114.5t-59.5 -105.5t-59 -109.5t-46 -128t-18.5 -159.5q0 -150 54 -238t155 -88q72 0 115.5 41t78.5 94l39 -69q-37 -57 -94 -105.5t-148 -48.5q-66 0 -117.5 28.5t-88.5 82t-56.5 126 t-19.5 162.5zM287 930v231h92v-231h-92z" />
<glyph unicode="&#xc0;" horiz-adv-x="892" d="M16 0l420 1587h19l422 -1587h-97l-139 543h-395l-137 -543h-93zM16 0zM256 2009h82l176 -321h-67zM264 616h359l-179 705z" />
<glyph unicode="&#xc1;" horiz-adv-x="892" d="M16 0l420 1587h19l422 -1587h-97l-139 543h-395l-137 -543h-93zM16 0zM264 616h359l-179 705zM377 1688l174 321h84l-192 -321h-66z" />
<glyph unicode="&#xc2;" horiz-adv-x="892" d="M16 0l420 1587h19l422 -1587h-97l-139 543h-395l-137 -543h-93zM16 0zM262 1688l178 321h15l176 -321h-70l-115 231l-114 -231h-70zM264 616h359l-179 705z" />
<glyph unicode="&#xc3;" horiz-adv-x="892" d="M16 0l420 1587h19l422 -1587h-97l-139 543h-395l-137 -543h-93zM16 0zM231 1821q23 66 52.5 106.5t70.5 40.5q27 0 48.5 -18.5t51.5 -52.5q29 -33 47.5 -49.5t41.5 -16.5q49 0 81 109l39 -31q-23 -68 -53.5 -107t-71.5 -39q-27 0 -48 18.5t-52 53.5q-25 29 -44 47.5 t-42 18.5q-25 0 -42 -23.5t-40 -85.5zM264 616h359l-179 705z" />
<glyph unicode="&#xc4;" horiz-adv-x="892" d="M16 0l420 1587h19l422 -1587h-97l-139 543h-395l-137 -543h-93zM16 0zM264 616h359l-179 705zM281 1745v227h70v-227h-70zM541 1745v227h72v-227h-72z" />
<glyph unicode="&#xc5;" horiz-adv-x="892" d="M16 0l420 1587h19l422 -1587h-97l-139 543h-395l-137 -543h-93zM16 0zM264 616h359l-179 705zM285 1831q0 39 10 75t30.5 63.5t50 45t68.5 17.5t70 -17.5t51.5 -45t30.5 -63.5t10 -75t-10 -75t-30.5 -64.5t-51.5 -46t-70 -17.5t-68.5 17.5t-50 46t-30.5 64.5t-10 75z M338 1829q0 -25 4 -52.5t16.5 -49t33 -36t50.5 -14.5q57 0 85 47.5t28 106.5t-27.5 105.5t-81.5 46.5q-55 0 -81.5 -48.5t-26.5 -105.5z" />
<glyph unicode="&#xc6;" horiz-adv-x="1292" d="M18 0l418 1567h774v-99h-450v-616h446v-94h-446v-660h454v-98h-544v543h-416l-141 -543h-95zM274 616h396v852h-172z" />
<glyph unicode="&#xc7;" horiz-adv-x="923" d="M68 0zM68 795q0 184 33.5 330.5t93 249t142.5 157.5t181 55q106 0 192.5 -60.5t151.5 -158.5l-53 -80q-61 92 -131 146.5t-158 54.5q-80 0 -146.5 -48t-114.5 -137.5t-74.5 -219.5t-26.5 -291q0 -166 27.5 -298.5t74.5 -224.5t112.5 -142t143.5 -50q84 0 165 67.5 t124 219.5l65 -56q-53 -168 -150 -248.5t-208 -80.5q-96 0 -177 58t-140.5 164.5t-93 257t-33.5 335.5zM402 -414l63 351h70l-76 -351h-57z" />
<glyph unicode="&#xc8;" horiz-adv-x="788" d="M98 0v1567h611v-99h-521v-616h514v-94h-514v-660h523v-98h-613zM98 0zM239 2009h82l176 -321h-67z" />
<glyph unicode="&#xc9;" horiz-adv-x="788" d="M98 0v1567h611v-99h-521v-616h514v-94h-514v-660h523v-98h-613zM98 0zM313 1688l174 321h84l-192 -321h-66z" />
<glyph unicode="&#xca;" horiz-adv-x="788" d="M98 0v1567h611v-99h-521v-616h514v-94h-514v-660h523v-98h-613zM98 0zM209 1688l178 321h15l176 -321h-70l-115 231l-114 -231h-70z" />
<glyph unicode="&#xcb;" horiz-adv-x="788" d="M98 0v1567h611v-99h-521v-616h514v-94h-514v-660h523v-98h-613zM98 0zM240 1745v227h70v-227h-70zM500 1745v227h72v-227h-72z" />
<glyph unicode="&#xcc;" horiz-adv-x="335" d="M12 0zM12 2009h82l176 -321h-67zM143 0v1567h90v-1567h-90z" />
<glyph unicode="&#xcd;" horiz-adv-x="335" d="M71 1688l174 321h84l-192 -321h-66zM72 0zM98 0v1567h90v-1567h-90z" />
<glyph unicode="&#xce;" horiz-adv-x="374" d="M2 0zM2 1688l178 321h15l176 -321h-70l-115 231l-114 -231h-70zM139 0v1567h90v-1567h-90z" />
<glyph unicode="&#xcf;" horiz-adv-x="335" d="M2 0zM2 1745v227h70v-227h-70zM123 0v1567h90v-1567h-90zM262 1745v227h72v-227h-72z" />
<glyph unicode="&#xd0;" horiz-adv-x="940" d="M16 766v76h111v725h279q125 0 214 -67.5t145 -177.5t81.5 -249t25.5 -282t-25.5 -284.5t-80.5 -254.5t-144.5 -182.5t-215.5 -69.5h-279v766h-111zM217 98h199q96 0 165.5 55.5t113.5 149.5t65.5 219t21.5 264q0 137 -21.5 260t-65.5 217.5t-113.5 149.5t-165.5 55h-199 v-626h328v-76h-328v-668z" />
<glyph unicode="&#xd1;" horiz-adv-x="956" d="M98 0v1587h17l655 -1286v1266h90v-1587h-16l-658 1296v-1276h-88zM98 0zM262 1821q23 66 52.5 106.5t70.5 40.5q27 0 48.5 -18.5t51.5 -52.5q29 -33 47.5 -49.5t41.5 -16.5q49 0 81 109l39 -31q-23 -68 -53.5 -107t-71.5 -39q-27 0 -48 18.5t-52 53.5q-25 29 -44 47.5 t-42 18.5q-25 0 -42 -23.5t-40 -85.5z" />
<glyph unicode="&#xd2;" horiz-adv-x="1005" d="M68 0zM68 784q0 154 28.5 299.5t84 257t136.5 179t185 67.5t185 -67.5t137.5 -180t85 -258t28.5 -299.5t-28.5 -299t-85 -256.5t-138.5 -179t-186 -67.5q-106 0 -187.5 68.5t-135.5 182t-81.5 258t-27.5 295.5zM158 784q0 -143 22.5 -271t65.5 -225.5t107.5 -153.5 t148.5 -56q82 0 146.5 57.5t109.5 153.5t67.5 224t22.5 269t-22.5 269.5t-67.5 225.5t-109.5 153.5t-148.5 56.5t-147.5 -56.5t-106.5 -152.5t-65.5 -224t-22.5 -270zM338 2009h82l176 -321h-67z" />
<glyph unicode="&#xd3;" horiz-adv-x="1005" d="M68 0zM68 784q0 154 28.5 299.5t84 257t136.5 179t185 67.5t185 -67.5t137.5 -180t85 -258t28.5 -299.5t-28.5 -299t-85 -256.5t-138.5 -179t-186 -67.5q-106 0 -187.5 68.5t-135.5 182t-81.5 258t-27.5 295.5zM158 784q0 -143 22.5 -271t65.5 -225.5t107.5 -153.5 t148.5 -56q82 0 146.5 57.5t109.5 153.5t67.5 224t22.5 269t-22.5 269.5t-67.5 225.5t-109.5 153.5t-148.5 56.5t-147.5 -56.5t-106.5 -152.5t-65.5 -224t-22.5 -270zM411 1688l174 321h84l-192 -321h-66z" />
<glyph unicode="&#xd4;" horiz-adv-x="1005" d="M68 0zM68 784q0 154 28.5 299.5t84 257t136.5 179t185 67.5t185 -67.5t137.5 -180t85 -258t28.5 -299.5t-28.5 -299t-85 -256.5t-138.5 -179t-186 -67.5q-106 0 -187.5 68.5t-135.5 182t-81.5 258t-27.5 295.5zM158 784q0 -143 22.5 -271t65.5 -225.5t107.5 -153.5 t148.5 -56q82 0 146.5 57.5t109.5 153.5t67.5 224t22.5 269t-22.5 269.5t-67.5 225.5t-109.5 153.5t-148.5 56.5t-147.5 -56.5t-106.5 -152.5t-65.5 -224t-22.5 -270zM317 1688l178 321h15l176 -321h-70l-115 231l-114 -231h-70z" />
<glyph unicode="&#xd5;" horiz-adv-x="1005" d="M68 0zM68 784q0 154 28.5 299.5t84 257t136.5 179t185 67.5t185 -67.5t137.5 -180t85 -258t28.5 -299.5t-28.5 -299t-85 -256.5t-138.5 -179t-186 -67.5q-106 0 -187.5 68.5t-135.5 182t-81.5 258t-27.5 295.5zM158 784q0 -143 22.5 -271t65.5 -225.5t107.5 -153.5 t148.5 -56q82 0 146.5 57.5t109.5 153.5t67.5 224t22.5 269t-22.5 269.5t-67.5 225.5t-109.5 153.5t-148.5 56.5t-147.5 -56.5t-106.5 -152.5t-65.5 -224t-22.5 -270zM287 1821q23 66 52.5 106.5t70.5 40.5q27 0 48.5 -18.5t51.5 -52.5q29 -33 47.5 -49.5t41.5 -16.5 q49 0 81 109l39 -31q-23 -68 -53.5 -107t-71.5 -39q-27 0 -48 18.5t-52 53.5q-25 29 -44 47.5t-42 18.5q-25 0 -42 -23.5t-40 -85.5z" />
<glyph unicode="&#xd6;" horiz-adv-x="1005" d="M68 0zM68 784q0 154 28.5 299.5t84 257t136.5 179t185 67.5t185 -67.5t137.5 -180t85 -258t28.5 -299.5t-28.5 -299t-85 -256.5t-138.5 -179t-186 -67.5q-106 0 -187.5 68.5t-135.5 182t-81.5 258t-27.5 295.5zM158 784q0 -143 22.5 -271t65.5 -225.5t107.5 -153.5 t148.5 -56q82 0 146.5 57.5t109.5 153.5t67.5 224t22.5 269t-22.5 269.5t-67.5 225.5t-109.5 153.5t-148.5 56.5t-147.5 -56.5t-106.5 -152.5t-65.5 -224t-22.5 -270zM338 1745v227h70v-227h-70zM598 1745v227h72v-227h-72z" />
<glyph unicode="&#xd7;" d="M207 453l196 350l-196 350l37 49l192 -350l193 348l39 -49l-199 -350l199 -346l-39 -49l-193 348l-192 -351z" />
<glyph unicode="&#xd8;" horiz-adv-x="1005" d="M68 784q0 154 28.5 299.5t84 257t136.5 179t185 67.5q72 0 132 -31.5t109 -91.5l119 295l56 -37l-130 -319q72 -117 111 -279.5t39 -343.5q0 -154 -28.5 -297t-85 -255.5t-138.5 -180t-186 -67.5q-72 0 -131.5 31.5t-106.5 86.5l-121 -301l-55 35l131 326 q-74 117 -111.5 282.5t-37.5 343.5zM158 784q0 -154 25.5 -289t74.5 -233l447 1106q-41 55 -92.5 87t-112.5 32q-84 0 -147.5 -56.5t-106.5 -152.5t-65.5 -224t-22.5 -270zM301 193q41 -53 90 -84t111 -31q82 0 146.5 57.5t109.5 153.5t67.5 224t22.5 269q0 152 -25.5 285 t-77.5 231z" />
<glyph unicode="&#xd9;" horiz-adv-x="872" d="M88 0zM88 614v953h90v-949q0 -127 13.5 -226t44 -169.5t80 -107.5t120.5 -37q135 0 197.5 133t62.5 407v949h88v-951q0 -328 -90 -482t-258 -154q-180 0 -264 163.5t-84 470.5zM270 2009h82l176 -321h-67z" />
<glyph unicode="&#xda;" horiz-adv-x="872" d="M88 0zM88 614v953h90v-949q0 -127 13.5 -226t44 -169.5t80 -107.5t120.5 -37q135 0 197.5 133t62.5 407v949h88v-951q0 -328 -90 -482t-258 -154q-180 0 -264 163.5t-84 470.5zM342 1688l174 321h84l-192 -321h-66z" />
<glyph unicode="&#xdb;" horiz-adv-x="872" d="M88 0zM88 614v953h90v-949q0 -127 13.5 -226t44 -169.5t80 -107.5t120.5 -37q135 0 197.5 133t62.5 407v949h88v-951q0 -328 -90 -482t-258 -154q-180 0 -264 163.5t-84 470.5zM250 1688l178 321h15l176 -321h-70l-115 231l-114 -231h-70z" />
<glyph unicode="&#xdc;" horiz-adv-x="872" d="M88 0zM88 614v953h90v-949q0 -127 13.5 -226t44 -169.5t80 -107.5t120.5 -37q135 0 197.5 133t62.5 407v949h88v-951q0 -328 -90 -482t-258 -154q-180 0 -264 163.5t-84 470.5zM270 1745v227h70v-227h-70zM530 1745v227h72v-227h-72z" />
<glyph unicode="&#xdd;" horiz-adv-x="864" d="M2 0zM2 1567h100l330 -750l334 750h94l-381 -846v-721h-90v719zM340 1688l174 321h84l-192 -321h-66z" />
<glyph unicode="&#xde;" horiz-adv-x="790" d="M98 0v1567h90v-324h263q72 0 125 -39t88.5 -103.5t53 -147.5t17.5 -171q0 -86 -16.5 -168t-51 -146.5t-89 -103t-127.5 -38.5h-263v-326h-90zM188 420h261q51 0 88.5 30.5t62.5 82t36 117t11 132.5q0 70 -12 134.5t-37 115.5t-61.5 82t-87.5 31h-261v-725z" />
<glyph unicode="&#xdf;" horiz-adv-x="749" d="M98 0v1262q0 178 59.5 251.5t159.5 73.5q119 0 167 -91t48 -261q0 -117 -21.5 -232.5t-74.5 -226.5q51 12 94 -9.5t75 -69.5t50.5 -122.5t18.5 -171.5q0 -82 -14.5 -158.5t-46 -135t-80 -94t-115.5 -35.5q-55 0 -101.5 24.5t-76.5 69.5l24 69q23 -41 62 -62.5t82 -21.5 q49 0 83.5 29t56 77t32 108.5t10.5 125.5q0 190 -69.5 263t-174.5 32v29q29 68 48.5 128t31.5 118.5t17.5 118t5.5 124.5q0 152 -29 223.5t-103 71.5q-63 0 -99 -57t-36 -197v-1253h-84z" />
<glyph unicode="&#xe0;" horiz-adv-x="624" d="M47 0zM47 233q0 111 40 169.5t118 78.5l260 66v2q0 135 -35 193.5t-137 58.5q-41 0 -87 -13.5t-110 -64.5l-16 72q66 53 123 68.5t104 15.5q133 0 187.5 -78t54.5 -238v-563h-80v96q-59 -53 -114.5 -84.5t-121.5 -31.5q-92 0 -139 67.5t-47 185.5zM125 244 q0 -92 32 -143.5t95 -51.5q53 0 107.5 32t105.5 77v329l-236 -65q-66 -18 -85 -68.5t-19 -109.5zM151 1300h82l176 -321h-67z" />
<glyph unicode="&#xe1;" horiz-adv-x="624" d="M47 0zM47 233q0 111 40 169.5t118 78.5l260 66v2q0 135 -35 193.5t-137 58.5q-41 0 -87 -13.5t-110 -64.5l-16 72q66 53 123 68.5t104 15.5q133 0 187.5 -78t54.5 -238v-563h-80v96q-59 -53 -114.5 -84.5t-121.5 -31.5q-92 0 -139 67.5t-47 185.5zM125 244 q0 -92 32 -143.5t95 -51.5q53 0 107.5 32t105.5 77v329l-236 -65q-66 -18 -85 -68.5t-19 -109.5zM219 979l174 321h84l-192 -321h-66z" />
<glyph unicode="&#xe2;" horiz-adv-x="624" d="M47 0zM47 233q0 111 40 169.5t118 78.5l260 66v2q0 135 -35 193.5t-137 58.5q-41 0 -87 -13.5t-110 -64.5l-16 72q66 53 123 68.5t104 15.5q133 0 187.5 -78t54.5 -238v-563h-80v96q-59 -53 -114.5 -84.5t-121.5 -31.5q-92 0 -139 67.5t-47 185.5zM125 244 q0 -92 32 -143.5t95 -51.5q53 0 107.5 32t105.5 77v329l-236 -65q-66 -18 -85 -68.5t-19 -109.5zM131 979l178 321h15l176 -321h-70l-115 231l-114 -231h-70z" />
<glyph unicode="&#xe3;" horiz-adv-x="622" d="M47 0zM47 233q0 111 40 169.5t118 78.5l260 66v2q0 135 -35 193.5t-137 58.5q-41 0 -87 -13.5t-110 -64.5l-16 72q66 53 123 68.5t104 15.5q133 0 187.5 -78t54.5 -238v-563h-80v96q-59 -53 -114.5 -84.5t-121.5 -31.5q-92 0 -139 67.5t-47 185.5zM98 1112 q23 66 52.5 106.5t70.5 40.5q27 0 48.5 -18.5t51.5 -52.5q29 -33 47.5 -49.5t41.5 -16.5q49 0 81 109l39 -31q-23 -68 -53.5 -107t-71.5 -39q-27 0 -48 18.5t-52 53.5q-25 29 -44 47.5t-42 18.5q-25 0 -42 -23.5t-40 -85.5zM125 244q0 -92 32 -143.5t95 -51.5q53 0 107.5 32 t105.5 77v329l-236 -65q-66 -18 -85 -68.5t-19 -109.5z" />
<glyph unicode="&#xe4;" horiz-adv-x="624" d="M47 0zM47 233q0 111 40 169.5t118 78.5l260 66v2q0 135 -35 193.5t-137 58.5q-41 0 -87 -13.5t-110 -64.5l-16 72q66 53 123 68.5t104 15.5q133 0 187.5 -78t54.5 -238v-563h-80v96q-59 -53 -114.5 -84.5t-121.5 -31.5q-92 0 -139 67.5t-47 185.5zM125 244 q0 -92 32 -143.5t95 -51.5q53 0 107.5 32t105.5 77v329l-236 -65q-66 -18 -85 -68.5t-19 -109.5zM152 1036v227h70v-227h-70zM412 1036v227h72v-227h-72z" />
<glyph unicode="&#xe5;" horiz-adv-x="624" d="M47 0zM47 233q0 111 40 169.5t118 78.5l260 66v2q0 135 -35 193.5t-137 58.5q-41 0 -87 -13.5t-110 -64.5l-16 72q66 53 123 68.5t104 15.5q133 0 187.5 -78t54.5 -238v-563h-80v96q-59 -53 -114.5 -84.5t-121.5 -31.5q-92 0 -139 67.5t-47 185.5zM125 244 q0 -92 32 -143.5t95 -51.5q53 0 107.5 32t105.5 77v329l-236 -65q-66 -18 -85 -68.5t-19 -109.5zM156 1186q0 39 10 75t30.5 63.5t50 45t68.5 17.5t70 -17.5t51.5 -45t30.5 -63.5t10 -75t-10 -75t-30.5 -64.5t-51.5 -46t-70 -17.5t-68.5 17.5t-50 46t-30.5 64.5t-10 75z M209 1184q0 -25 4 -52.5t16.5 -49t33 -36t50.5 -14.5q57 0 85 47.5t28 106.5t-27.5 105.5t-81.5 46.5q-55 0 -81.5 -48.5t-26.5 -105.5z" />
<glyph unicode="&#xe6;" horiz-adv-x="1067" d="M47 233q0 98 36 162t122 86l260 66v2q0 137 -36 194.5t-136 57.5q-39 0 -85 -13.5t-112 -62.5l-16 70q66 53 123 68.5t102 15.5q182 0 225 -160q35 72 88.5 116t126.5 44q68 0 117 -38t80 -99.5t45 -139.5t14 -158v-41h-446q2 -68 13.5 -130t37 -110t65.5 -78t99 -30 q80 0 168 70l20 -68q-33 -33 -86 -55t-114 -22q-86 0 -143.5 46t-90.5 121q-63 -66 -135 -116.5t-156 -50.5q-92 0 -139 67.5t-47 185.5zM125 244q0 -92 31.5 -143.5t97.5 -51.5q61 0 124.5 43t125.5 105q-16 51 -23.5 108t-7.5 117v36.5t2 35.5l-246 -70q-66 -18 -85 -70.5 t-19 -109.5zM555 465h365q0 61 -10.5 122.5t-32 108.5t-54.5 77t-80 30q-43 0 -76.5 -26.5t-57 -73t-38 -107.5t-16.5 -131z" />
<glyph unicode="&#xe7;" horiz-adv-x="598" d="M68 0zM68 430q0 102 21.5 185t58 141.5t86 90.5t104.5 32q113 0 203 -115l-41 -62q-39 57 -78 78t-74 21q-86 0 -142 -99.5t-56 -271.5q0 -72 11 -139.5t34.5 -119.5t60.5 -83t86 -31q59 0 98 45t66 117l45 -41q-31 -86 -84 -142t-135 -56q-66 0 -116 37.5t-83 100 t-49 144.5t-16 168zM219 -414l63 351h70l-76 -351h-57z" />
<glyph unicode="&#xe8;" horiz-adv-x="661" d="M68 0zM68 422q0 86 16 169t50 146.5t85 102.5t121 39q68 0 117 -38t79.5 -99.5t45 -139.5t14.5 -158v-41h-446q2 -68 13 -130t36.5 -110t65.5 -78t100 -30q80 0 167 70l21 -68q-33 -33 -86 -55t-113 -22q-78 0 -132 37.5t-89 100t-50 141.5t-15 163zM150 465h364 q0 61 -10 122.5t-31.5 108.5t-54.5 77t-80 30q-43 0 -77 -26.5t-57.5 -73t-37.5 -107.5t-16 -131zM172 1300h82l176 -321h-67z" />
<glyph unicode="&#xe9;" horiz-adv-x="661" d="M68 0zM68 422q0 86 16 169t50 146.5t85 102.5t121 39q68 0 117 -38t79.5 -99.5t45 -139.5t14.5 -158v-41h-446q2 -68 13 -130t36.5 -110t65.5 -78t100 -30q80 0 167 70l21 -68q-33 -33 -86 -55t-113 -22q-78 0 -132 37.5t-89 100t-50 141.5t-15 163zM150 465h364 q0 61 -10 122.5t-31.5 108.5t-54.5 77t-80 30q-43 0 -77 -26.5t-57.5 -73t-37.5 -107.5t-16 -131zM250 979l174 321h84l-192 -321h-66z" />
<glyph unicode="&#xea;" horiz-adv-x="661" d="M68 0zM68 422q0 86 16 169t50 146.5t85 102.5t121 39q68 0 117 -38t79.5 -99.5t45 -139.5t14.5 -158v-41h-446q2 -68 13 -130t36.5 -110t65.5 -78t100 -30q80 0 167 70l21 -68q-33 -33 -86 -55t-113 -22q-78 0 -132 37.5t-89 100t-50 141.5t-15 163zM150 465h364 q0 61 -10 122.5t-31.5 108.5t-54.5 77t-80 30q-43 0 -77 -26.5t-57.5 -73t-37.5 -107.5t-16 -131zM160 979l178 321h15l176 -321h-70l-115 231l-114 -231h-70z" />
<glyph unicode="&#xeb;" horiz-adv-x="661" d="M68 0zM68 422q0 86 16 169t50 146.5t85 102.5t121 39q68 0 117 -38t79.5 -99.5t45 -139.5t14.5 -158v-41h-446q2 -68 13 -130t36.5 -110t65.5 -78t100 -30q80 0 167 70l21 -68q-33 -33 -86 -55t-113 -22q-78 0 -132 37.5t-89 100t-50 141.5t-15 163zM150 465h364 q0 61 -10 122.5t-31.5 108.5t-54.5 77t-80 30q-43 0 -77 -26.5t-57.5 -73t-37.5 -107.5t-16 -131zM178 1036v227h70v-227h-70zM438 1036v227h72v-227h-72z" />
<glyph unicode="&#xec;" horiz-adv-x="327" d="M8 0zM8 1300h82l176 -321h-67zM143 0v856h82v-856h-82z" />
<glyph unicode="&#xed;" horiz-adv-x="325" d="M65 979l174 321h84l-192 -321h-66zM66 0zM98 0v856h82v-856h-82z" />
<glyph unicode="&#xee;" horiz-adv-x="370" d="M0 0zM0 979l178 321h15l176 -321h-70l-115 231l-114 -231h-70zM141 0v856h82v-856h-82z" />
<glyph unicode="&#xef;" horiz-adv-x="333" d="M0 0zM0 1036v227h70v-227h-70zM125 0v856h82v-856h-82zM260 1036v227h72v-227h-72z" />
<glyph unicode="&#xf0;" horiz-adv-x="669" d="M68 434q0 80 14 160t44 143.5t75 102.5t106 39q55 0 105.5 -32t89.5 -79q-18 147 -55 271t-85 227l-141 -203l-37 53l148 211q-45 80 -93.5 139.5t-95.5 100.5h90q33 -25 70 -69t74 -105l137 194l39 -51l-141 -203q74 -141 130 -346t56 -463q0 -268 -67.5 -406 t-194.5 -138q-66 0 -116 37.5t-84 100t-51 144.5t-17 172zM152 440q0 -76 11 -144.5t34.5 -119.5t57.5 -82t79 -31q86 0 134 116t48 347q0 76 -6 154q-43 59 -91 93t-93 34t-78 -31t-54.5 -82t-31.5 -117.5t-10 -136.5z" />
<glyph unicode="&#xf1;" horiz-adv-x="690" d="M92 0v856h84v-108q41 47 108.5 89t149.5 42q45 0 79 -17.5t56.5 -58.5t32.5 -108.5t10 -168.5v-526h-84v520q0 156 -28.5 217.5t-91.5 61.5q-35 0 -69 -13.5t-65.5 -32t-57.5 -41t-40 -40.5v-672h-84zM92 0zM135 1112q23 66 52.5 106.5t70.5 40.5q27 0 48.5 -18.5 t51.5 -52.5q29 -33 47.5 -49.5t41.5 -16.5q49 0 81 109l39 -31q-23 -68 -53.5 -107t-71.5 -39q-27 0 -48 18.5t-52 53.5q-25 29 -44 47.5t-42 18.5q-25 0 -42 -23.5t-40 -85.5z" />
<glyph unicode="&#xf2;" horiz-adv-x="659" d="M68 0zM68 428q0 86 17 167t51 144.5t83 101.5t113 38q63 0 112.5 -39t82 -101.5t50 -144.5t17.5 -168t-17.5 -167t-51 -142.5t-82 -99t-111.5 -37.5t-112.5 37.5t-83.5 100t-51 143.5t-17 167zM152 428q0 -74 11 -141.5t34.5 -117.5t57.5 -81t77 -31t76.5 30t57 81 t35 118.5t11.5 141.5t-11.5 141.5t-35 118.5t-57 82t-76.5 31t-77 -31t-56.5 -82t-34.5 -118.5t-12 -141.5zM168 1300h82l176 -321h-67z" />
<glyph unicode="&#xf3;" horiz-adv-x="659" d="M68 0zM68 428q0 86 17 167t51 144.5t83 101.5t113 38q63 0 112.5 -39t82 -101.5t50 -144.5t17.5 -168t-17.5 -167t-51 -142.5t-82 -99t-111.5 -37.5t-112.5 37.5t-83.5 100t-51 143.5t-17 167zM152 428q0 -74 11 -141.5t34.5 -117.5t57.5 -81t77 -31t76.5 30t57 81 t35 118.5t11.5 141.5t-11.5 141.5t-35 118.5t-57 82t-76.5 31t-77 -31t-56.5 -82t-34.5 -118.5t-12 -141.5zM237 979l174 321h84l-192 -321h-66z" />
<glyph unicode="&#xf4;" horiz-adv-x="659" d="M68 0zM68 428q0 86 17 167t51 144.5t83 101.5t113 38q63 0 112.5 -39t82 -101.5t50 -144.5t17.5 -168t-17.5 -167t-51 -142.5t-82 -99t-111.5 -37.5t-112.5 37.5t-83.5 100t-51 143.5t-17 167zM145 979l178 321h15l176 -321h-70l-115 231l-114 -231h-70zM152 428 q0 -74 11 -141.5t34.5 -117.5t57.5 -81t77 -31t76.5 30t57 81t35 118.5t11.5 141.5t-11.5 141.5t-35 118.5t-57 82t-76.5 31t-77 -31t-56.5 -82t-34.5 -118.5t-12 -141.5z" />
<glyph unicode="&#xf5;" horiz-adv-x="659" d="M68 0zM68 428q0 86 17 167t51 144.5t83 101.5t113 38q63 0 112.5 -39t82 -101.5t50 -144.5t17.5 -168t-17.5 -167t-51 -142.5t-82 -99t-111.5 -37.5t-112.5 37.5t-83.5 100t-51 143.5t-17 167zM114 1112q23 66 52.5 106.5t70.5 40.5q27 0 48.5 -18.5t51.5 -52.5 q29 -33 47.5 -49.5t41.5 -16.5q49 0 81 109l39 -31q-23 -68 -53.5 -107t-71.5 -39q-27 0 -48 18.5t-52 53.5q-25 29 -44 47.5t-42 18.5q-25 0 -42 -23.5t-40 -85.5zM152 428q0 -74 11 -141.5t34.5 -117.5t57.5 -81t77 -31t76.5 30t57 81t35 118.5t11.5 141.5t-11.5 141.5 t-35 118.5t-57 82t-76.5 31t-77 -31t-56.5 -82t-34.5 -118.5t-12 -141.5z" />
<glyph unicode="&#xf6;" horiz-adv-x="659" d="M68 0zM68 428q0 86 17 167t51 144.5t83 101.5t113 38q63 0 112.5 -39t82 -101.5t50 -144.5t17.5 -168t-17.5 -167t-51 -142.5t-82 -99t-111.5 -37.5t-112.5 37.5t-83.5 100t-51 143.5t-17 167zM152 428q0 -74 11 -141.5t34.5 -117.5t57.5 -81t77 -31t76.5 30t57 81 t35 118.5t11.5 141.5t-11.5 141.5t-35 118.5t-57 82t-76.5 31t-77 -31t-56.5 -82t-34.5 -118.5t-12 -141.5zM166 1036v227h70v-227h-70zM426 1036v227h72v-227h-72z" />
<glyph unicode="&#xf7;" d="M162 768v74h549v-74h-549zM393 270v232h92v-232h-92zM393 1106v231h92v-231h-92z" />
<glyph unicode="&#xf8;" horiz-adv-x="659" d="M68 426q0 86 17 168t51 145.5t82 101.5t112 38q61 0 112 -39l72 209l55 -31l-77 -225q49 -66 75.5 -163.5t26.5 -203.5q0 -86 -17.5 -167t-50 -142.5t-82 -99t-110.5 -37.5q-33 0 -60.5 9t-52.5 25l-69 -202l-56 30l76 219q-53 63 -78.5 161t-25.5 204zM152 428 q0 -78 13 -149.5t40 -122.5l211 608q-41 37 -86 37q-43 0 -76 -31t-55.5 -82t-34.5 -118.5t-12 -141.5zM248 92q39 -35 84 -35q43 0 76.5 30t57 81t35 117.5t11.5 140.5q0 80 -13.5 150.5t-39.5 123.5z" />
<glyph unicode="&#xf9;" horiz-adv-x="710" d="M98 0zM98 330v526h84v-520q0 -158 31 -217.5t92 -59.5q33 0 68 12.5t66.5 31t57 40t40.5 39.5v674h84v-856h-82v109q-18 -23 -46 -45.5t-62 -41t-73 -30.5t-77 -12q-94 0 -138.5 79.5t-44.5 270.5zM190 1300h82l176 -321h-67z" />
<glyph unicode="&#xfa;" horiz-adv-x="710" d="M98 0zM98 330v526h84v-520q0 -158 31 -217.5t92 -59.5q33 0 68 12.5t66.5 31t57 40t40.5 39.5v674h84v-856h-82v109q-18 -23 -46 -45.5t-62 -41t-73 -30.5t-77 -12q-94 0 -138.5 79.5t-44.5 270.5zM262 979l174 321h84l-192 -321h-66z" />
<glyph unicode="&#xfb;" horiz-adv-x="710" d="M98 0zM98 330v526h84v-520q0 -158 31 -217.5t92 -59.5q33 0 68 12.5t66.5 31t57 40t40.5 39.5v674h84v-856h-82v109q-18 -23 -46 -45.5t-62 -41t-73 -30.5t-77 -12q-94 0 -138.5 79.5t-44.5 270.5zM172 979l178 321h15l176 -321h-70l-115 231l-114 -231h-70z" />
<glyph unicode="&#xfc;" horiz-adv-x="710" d="M98 0zM98 330v526h84v-520q0 -158 31 -217.5t92 -59.5q33 0 68 12.5t66.5 31t57 40t40.5 39.5v674h84v-856h-82v109q-18 -23 -46 -45.5t-62 -41t-73 -30.5t-77 -12q-94 0 -138.5 79.5t-44.5 270.5zM193 1036v227h70v-227h-70zM453 1036v227h72v-227h-72z" />
<glyph unicode="&#xfd;" horiz-adv-x="608" d="M16 0zM16 856h86l199 -659l209 659h82l-406 -1270h-80l156 492zM211 979l174 321h84l-192 -321h-66z" />
<glyph unicode="&#xfe;" horiz-adv-x="708" d="M98 -414v1981h84v-819q16 18 41 40.5t55.5 42t64.5 34t69 14.5q57 0 99 -37t70.5 -99.5t43 -145.5t14.5 -173q0 -88 -13.5 -169t-41 -142.5t-69.5 -97t-97 -35.5q-35 0 -70 13t-65.5 32.5t-56 42t-44.5 41.5v-523h-84zM180 184q16 -16 41 -37.5t53.5 -41t59.5 -33 t59 -13.5q80 0 122 101.5t42 265.5q0 166 -43 269.5t-123 103.5q-31 0 -62.5 -14.5t-59 -34t-51 -41t-38.5 -35.5v-490z" />
<glyph unicode="&#xff;" horiz-adv-x="608" d="M16 0zM16 856h86l199 -659l209 659h82l-406 -1270h-80l156 492zM137 1026v227h70v-227h-70zM397 1026v227h72v-227h-72z" />
<glyph unicode="&#x152;" horiz-adv-x="1380" d="M68 791q0 143 25.5 282t81.5 249t144.5 177.5t215.5 67.5h765v-99h-493v-616h487v-94h-487v-660h496v-98h-768q-127 0 -216.5 69.5t-144.5 182.5t-80.5 254t-25.5 285zM158 784q0 -139 21.5 -264t67.5 -219t117.5 -148.5t170.5 -54.5h182v1370h-182q-98 0 -170 -54 t-118 -148.5t-67.5 -218t-21.5 -263.5z" />
<glyph unicode="&#x153;" horiz-adv-x="1110" d="M68 428q0 86 17 167t51 144.5t83 101.5t113 38q80 0 136 -59.5t87 -151.5q33 92 91.5 151.5t144.5 59.5q68 0 116.5 -38t79.5 -99.5t45.5 -139.5t14.5 -158v-41h-447q2 -68 13.5 -130t37 -110t65.5 -78t99 -30q80 0 168 70l21 -68q-33 -33 -86.5 -55t-112.5 -22 q-98 0 -158.5 57t-91.5 145q-33 -90 -89 -146t-134 -56q-63 0 -112.5 37.5t-83.5 100t-51 143.5t-17 167zM152 428q0 -74 11 -141.5t34.5 -117.5t57.5 -81t77 -31t76.5 30t57 81t35 118.5t11.5 141.5t-11.5 141.5t-35 118.5t-57 82t-76.5 31t-77 -31t-56.5 -82t-34.5 -118.5 t-12 -141.5zM600 465h365q0 61 -10.5 122.5t-32 108.5t-54.5 77t-80 30q-43 0 -76.5 -26.5t-57 -73t-38 -107.5t-16.5 -131z" />
<glyph unicode="&#x178;" horiz-adv-x="872" d="M6 0zM6 1567h100l330 -750l334 750h94l-381 -846v-721h-90v719zM272 1745v227h70v-227h-70zM532 1745v227h72v-227h-72z" />
<glyph unicode="&#x2c6;" horiz-adv-x="548" d="M90 969l178 321h15l176 -321h-70l-115 231l-114 -231h-70z" />
<glyph unicode="&#x2dc;" horiz-adv-x="618" d="M94 1102q23 66 52.5 106.5t70.5 40.5q27 0 48.5 -18.5t51.5 -52.5q29 -33 47.5 -49.5t41.5 -16.5q49 0 81 109l39 -31q-23 -68 -53.5 -107t-71.5 -39q-27 0 -48 18.5t-52 53.5q-25 29 -44 47.5t-42 18.5q-25 0 -42 -23.5t-40 -85.5z" />
<glyph unicode="&#x2000;" horiz-adv-x="1016" />
<glyph unicode="&#x2001;" horiz-adv-x="2032" />
<glyph unicode="&#x2002;" horiz-adv-x="1016" />
<glyph unicode="&#x2003;" horiz-adv-x="2032" />
<glyph unicode="&#x2004;" horiz-adv-x="677" />
<glyph unicode="&#x2005;" horiz-adv-x="508" />
<glyph unicode="&#x2006;" horiz-adv-x="338" />
<glyph unicode="&#x2007;" horiz-adv-x="338" />
<glyph unicode="&#x2008;" horiz-adv-x="254" />
<glyph unicode="&#x2009;" horiz-adv-x="406" />
<glyph unicode="&#x200a;" horiz-adv-x="112" />
<glyph unicode="&#x2010;" horiz-adv-x="391" d="M29 516v76h331v-76h-331z" />
<glyph unicode="&#x2011;" horiz-adv-x="391" d="M29 516v76h331v-76h-331z" />
<glyph unicode="&#x2012;" horiz-adv-x="391" d="M29 516v76h331v-76h-331z" />
<glyph unicode="&#x2013;" horiz-adv-x="608" d="M29 516v76h549v-76h-549z" />
<glyph unicode="&#x2014;" horiz-adv-x="919" d="M29 516v76h862v-76h-862z" />
<glyph unicode="&#x2018;" horiz-adv-x="215" d="M59 1053zM60 1540l49 -487h37l-17 299h23v231h-92v-43z" />
<glyph unicode="&#x2019;" horiz-adv-x="215" d="M61 1053zM61 1352v231h92v-43l-49 -487h-37l17 299h-23z" />
<glyph unicode="&#x201a;" horiz-adv-x="215" d="M61 0v231h92v-43l-49 -487h-37l17 299h-23zM61 0z" />
<glyph unicode="&#x201c;" horiz-adv-x="358" d="M59 1053zM60 1540l49 -487h37l-17 299h23v231h-92v-43zM207 1540l49 -487h37l-17 299h23v231h-92v-43z" />
<glyph unicode="&#x201d;" horiz-adv-x="358" d="M61 1053zM61 1352v231h92v-43l-49 -487h-37l17 299h-23zM204 1352v231h92v-43l-49 -487h-37l17 299h-23z" />
<glyph unicode="&#x201e;" horiz-adv-x="358" d="M61 0v231h92v-43l-49 -487h-37l17 299h-23zM61 0zM204 0v231h92v-43l-49 -487h-37l17 299h-23z" />
<glyph unicode="&#x2022;" horiz-adv-x="413" d="M76 805q0 66 33.5 118t97.5 52q63 0 97 -53.5t34 -118.5q0 -66 -34 -119t-97 -53t-97 53t-34 121z" />
<glyph unicode="&#x2026;" horiz-adv-x="925" d="M98 0v231h92v-231h-92zM98 0zM413 0v231h92v-231h-92zM733 0v231h92v-231h-92z" />
<glyph unicode="&#x202f;" horiz-adv-x="406" />
<glyph unicode="&#x2039;" horiz-adv-x="391" d="M59 414v22l211 410h60l-203 -422l203 -424h-60z" />
<glyph unicode="&#x203a;" horiz-adv-x="391" d="M59 0l203 424l-203 422h62l209 -410v-22l-209 -414h-62z" />
<glyph unicode="&#x205f;" horiz-adv-x="508" />
<glyph unicode="&#x20ac;" d="M70 608l16 64h111q-2 29 -2 57.5v56.5v81t4 81h-129l16 64h119q12 113 36.5 217t64.5 184t96.5 127t132.5 47q51 0 104 -25.5t92 -91.5l-29 -71q-41 61 -79.5 79.5t-71.5 18.5q-59 0 -103.5 -39t-76 -104.5t-52 -154.5t-28.5 -187h364l-14 -64h-356q-2 -41 -3 -80t-1 -80 v-59.5t2 -56.5h321l-12 -64h-305q8 -115 28.5 -212t51 -168.5t71.5 -111.5t92 -40q61 0 114.5 66.5t82.5 211.5l45 -39q-35 -152 -97.5 -243.5t-158.5 -91.5q-68 0 -121 49t-93 135t-65.5 200.5t-35.5 243.5h-131z" />
<glyph unicode="&#x2122;" horiz-adv-x="1085" d="M55 1503v64h361v-64h-146v-825h-67v825h-148zM485 678v909h11l235 -747l246 747h10v-909h-65v526l-185 -547h-12l-176 547v-526h-64z" />
<glyph unicode="&#x25fc;" horiz-adv-x="860" d="M0 0v860h860v-860h-860z" />
</font>
</defs>
</svg>
