<?xml version="1.0" standalone="no"?>
<!DOCTYPE svg PUBLIC "-//W3C//DTD SVG 1.1//EN" "http://www.w3.org/Graphics/SVG/1.1/DTD/svg11.dtd" >
<svg xmlns="http://www.w3.org/2000/svg" xmlns:xlink="http://www.w3.org/1999/xlink" version="1.1">
<metadata></metadata>
<defs>
<font id="mesmerizelight" horiz-adv-x="1441" >
<font-face units-per-em="2048" ascent="1622" descent="-426" />
<missing-glyph horiz-adv-x="589" />
<glyph unicode="&#x28;C&#x29;" horiz-adv-x="1654" d="M111 784q0 154 47 299.5t138 257t225 179t306 67.5t306.5 -67.5t225.5 -180t138 -258t47 -299.5t-47 -298t-138 -256.5t-225.5 -180t-308.5 -67.5q-176 2 -309 70.5t-223 181t-136 257t-46 295.5zM197 782q0 -145 42 -277t122.5 -231.5t197.5 -158t266 -58.5 q150 0 266.5 58.5t198.5 157t125 230.5t43 279t-43 279.5t-125 233t-198.5 158.5t-266.5 58q-147 0 -264 -58t-197.5 -157.5t-123.5 -232.5t-43 -281zM434 786q0 100 31 181.5t86 138.5t130 87t163 30q98 0 176 -34t139 -87l-49 -64q-59 53 -129 80t-139 27 q-68 0 -125.5 -24.5t-100.5 -70.5t-67.5 -114t-24.5 -154q0 -174 92.5 -271t237.5 -97q92 0 152.5 39t101.5 110l57 -47q-47 -92 -136 -136t-189 -44q-86 0 -161 31.5t-129 91t-85 142.5t-31 185z" />
<glyph unicode="&#x28;R&#x29;" horiz-adv-x="1654" d="M111 784q0 154 47 299.5t138 257t225 179t306 67.5t306.5 -67.5t225.5 -180t138 -258t47 -299.5t-47 -298t-138 -256.5t-225.5 -180t-308.5 -67.5q-176 2 -309 70.5t-223 181t-136 257t-46 295.5zM197 782q0 -145 42 -277t122.5 -231.5t197.5 -158t266 -58.5 q150 0 266.5 58.5t198.5 157t125 230.5t43 279t-43 280.5t-125 233t-198.5 157.5t-266.5 58q-147 0 -264 -58t-197.5 -157.5t-123.5 -232.5t-43 -281zM563 348v862h295q63 0 108.5 -19.5t75 -51t44 -74.5t14.5 -90q0 -82 -44 -143.5t-136 -77.5l286 -406h-98l-281 402h-174 v-402h-90zM653 825h201q84 0 120 41t36 113t-36 113t-120 41h-201v-308z" />
<glyph horiz-adv-x="0" />
<glyph horiz-adv-x="0" />
<glyph unicode="&#xd;" horiz-adv-x="589" />
<glyph horiz-adv-x="475" />
<glyph unicode=" "  horiz-adv-x="589" />
<glyph unicode="&#x09;" horiz-adv-x="589" />
<glyph unicode="&#xa0;" horiz-adv-x="589" />
<glyph unicode="!" horiz-adv-x="485" d="M162 0v250h162v-250h-162zM164 1567h160l-29 -1129h-102z" />
<glyph unicode="&#x22;" horiz-adv-x="608" d="M100 1055zM100 1567h148l-23 -512h-100zM360 1567h148l-23 -512h-100z" />
<glyph unicode="#" d="M131 481v99h279l51 452h-273v96h285l51 439h107l-51 -439h360l51 439h109l-53 -439h260v-96h-271l-53 -452h266v-99h-278l-56 -481h-106l55 481h-360l-55 -481h-107l55 481h-266zM516 580h361l51 452h-361z" />
<glyph unicode="$" d="M240 268l32 117q98 -51 213 -75.5t215 -30.5v460q-49 10 -96 21.5t-86 23.5q-55 16 -103 39t-84 55.5t-57.5 81t-21.5 115.5q0 82 32.5 143.5t92 102.5t141.5 61.5t182 22.5v246h91v-248q219 -16 397 -111l-33 -116q-90 41 -179 67.5t-185 34.5v-442q49 -10 107 -25.5 t97 -28.5q123 -39 181.5 -102.5t58.5 -177.5q0 -164 -115.5 -253t-328.5 -93v-240h-91v240q-104 6 -230 30.5t-230 81.5zM406 1065q0 -80 44 -117t140 -63l110 -31v428q-66 -2 -119 -14.5t-92.5 -38t-61 -66.5t-21.5 -98zM791 279q291 12 290 225q0 80 -41 121.5t-131 66.5 q-23 6 -49 11.5t-69 15.5v-440z" />
<glyph unicode="%" horiz-adv-x="1775" d="M111 0zM111 1124q0 84 21.5 164t62.5 141.5t100.5 98t137.5 36.5t138 -36.5t101 -98t62.5 -141.5t21.5 -166q0 -84 -21.5 -164t-62.5 -141.5t-101 -99t-138 -37.5t-138.5 39t-101.5 100t-61.5 141t-20.5 164zM217 1124q0 -70 14.5 -130t42 -106t68.5 -73t93 -27 q51 0 91 27t67.5 72t42 106t14.5 129q0 70 -14.5 130.5t-42 106.5t-68.5 72.5t-92 26.5q-49 0 -89.5 -26.5t-68 -71.5t-43 -105.5t-15.5 -130.5zM293 -16l1116 1656l78 -55l-1116 -1659zM1022 432q0 84 21.5 164t62.5 141.5t100.5 98t137.5 36.5t138 -36.5t101 -98 t62.5 -141.5t21.5 -166q0 -84 -21.5 -164t-62.5 -141.5t-101 -99t-138 -37.5t-138.5 39t-101.5 100t-61.5 141t-20.5 164zM1128 432q0 -70 14.5 -130t42 -106t68.5 -73t93 -27q51 0 91 27t67.5 72t42 106t14.5 129q0 70 -14.5 130.5t-42 106.5t-68.5 72.5t-92 26.5 q-49 0 -89.5 -26.5t-68 -71.5t-43 -105.5t-15.5 -130.5z" />
<glyph unicode="&#x26;" horiz-adv-x="1359" d="M76 385q0 82 22.5 144.5t62.5 109.5t95 85t119 73q-84 86 -144.5 184t-60.5 229q0 80 26.5 150t76 120t119 78.5t155.5 28.5q76 0 143.5 -22.5t119.5 -68.5t83 -115.5t31 -163.5q0 -92 -30 -161t-80 -120t-115.5 -92t-135.5 -78l326 -309l102 325h142l-140 -426l375 -356 h-168l-250 240q-27 -55 -65.5 -102.5t-93 -82.5t-123 -55t-152.5 -20q-90 0 -171 24.5t-140.5 74.5t-94 127t-34.5 179zM217 406q0 -137 85 -218.5t222 -81.5q117 0 197 59.5t127 172.5l-385 375q-57 -31 -102.5 -60.5t-77 -64.5t-49 -79t-17.5 -103zM295 1196 q0 -104 53 -186t129 -160q68 35 126.5 67.5t100 72.5t66.5 90t25 122q0 125 -71 192.5t-175 67.5q-59 0 -106.5 -21.5t-80 -57t-50 -84t-17.5 -103.5z" />
<glyph unicode="'" horiz-adv-x="348" d="M100 1567h148l-23 -512h-100z" />
<glyph unicode="(" horiz-adv-x="802" d="M225 782q0 338 38 558.5t103.5 353.5t153.5 196.5t191 87.5v-106q-84 -27 -154 -95.5t-120 -194.5t-77.5 -317.5t-27.5 -465.5q0 -276 27.5 -474t78.5 -329t120 -203t153 -98v-109q-102 25 -190.5 88.5t-154 197.5t-103.5 353t-38 557z" />
<glyph unicode=")" horiz-adv-x="802" d="M92 -305q80 25 148.5 92.5t120 196.5t81 327.5t29.5 485.5q0 262 -25.5 452.5t-74.5 319.5t-120 201.5t-159 101.5v106q102 -25 190.5 -88t154 -196t103.5 -353.5t38 -558.5t-38 -557t-103.5 -353t-153.5 -197.5t-191 -88.5v109z" />
<glyph unicode="*" horiz-adv-x="1054" d="M100 1118l351 80l-301 207l59 92l287 -244l-21 385h105l-19 -385l285 242l57 -90l-299 -207l350 -80l-26 -104l-344 119l164 -342l-93 -46l-129 355l-127 -355l-92 43l166 345l-346 -119z" />
<glyph unicode="+" d="M268 752v104h400v428h106v-428h397v-104h-397v-430h-106v430h-400z" />
<glyph unicode="," horiz-adv-x="485" d="M162 0v250h162v-41l-86 -508h-64l27 299h-39z" />
<glyph unicode="-" horiz-adv-x="643" d="M47 500v110h547v-110h-547z" />
<glyph unicode="." horiz-adv-x="485" d="M162 0v250h162v-250h-162z" />
<glyph unicode="/" horiz-adv-x="761" d="M-8 -229l670 1943h106l-670 -1943h-106z" />
<glyph unicode="0" d="M119 784q0 154 40 299.5t116.5 257t188 179t257.5 67.5q145 0 257 -68.5t188.5 -180t115.5 -257t39 -299.5t-39 -298t-115.5 -256.5t-189.5 -180t-260 -67.5q-145 0 -257 69.5t-187.5 182t-114.5 257t-39 295.5zM283 784q0 -131 28.5 -248.5t84 -206.5t136 -141.5 t187.5 -52.5q106 0 188 51.5t138.5 139.5t85 205.5t28.5 250.5t-28.5 251t-85 207t-138.5 140.5t-188 51.5q-104 0 -185 -51.5t-137.5 -139.5t-85 -205.5t-28.5 -251.5z" />
<glyph unicode="1" horiz-adv-x="813" d="M33 1028l594 559h26v-1587h-161v1272l-381 -354z" />
<glyph unicode="2" horiz-adv-x="1204" d="M92 0v27q223 184 378 331.5t252 273.5t140 234.5t43 216.5q0 154 -86 251.5t-272 97.5q-104 0 -188.5 -34t-176.5 -106l-59 131q90 70 194.5 117t253.5 47q242 0 369 -125t127 -342q0 -117 -39 -230.5t-121 -230t-208 -241.5t-300 -262h680v-156h-987z" />
<glyph unicode="3" horiz-adv-x="1234" d="M111 238l82 106q82 -98 177 -153.5t230 -55.5q96 0 169 27.5t121 76t72.5 110t24.5 128.5q0 127 -83 206t-240 79h-138v119h142q74 0 127 23.5t86.5 62.5t50 87t16.5 97q0 129 -93 205t-247 76q-98 0 -192 -33t-172 -99l-70 127q92 72 199.5 116t242.5 44 q106 0 195.5 -29.5t153 -83t98.5 -130t35 -170.5q0 -102 -47 -196.5t-148 -148.5q111 -45 175.5 -134t64.5 -234q0 -115 -41 -204t-112.5 -150.5t-169 -94t-210.5 -32.5q-92 0 -165.5 20t-134 55t-109.5 82t-90 101z" />
<glyph unicode="4" horiz-adv-x="1257" d="M43 442v27l905 1118h25v-1018h237v-127h-237v-442h-144v442h-786zM264 569h565v695z" />
<glyph unicode="5" horiz-adv-x="1286" d="M115 240l78 106q78 -104 190.5 -157.5t239.5 -53.5q98 0 173.5 32t127 89t77 134t25.5 169q0 109 -34 188.5t-91 133t-132 80t-157 26.5q-119 0 -217 -54t-184 -159l-27 14l76 779h846v-156h-713l-45 -399q63 41 137 63.5t164 22.5q98 0 194.5 -31t173.5 -96.5t124 -169 t47 -248.5q0 -121 -36 -225.5t-104.5 -182t-172 -121.5t-238.5 -44q-176 0 -309 71.5t-213 188.5z" />
<glyph unicode="6" horiz-adv-x="1341" d="M111 713q0 160 32.5 315.5t106.5 280.5t192.5 201.5t290.5 76.5q57 0 114.5 -9t111 -25.5t98.5 -39t78 -49.5l-54 -133q-76 53 -170 77t-174 24q-109 0 -189.5 -41t-136 -112t-88 -166t-44.5 -202q86 80 191 134.5t247 54.5q100 0 193.5 -32t165 -97.5t114.5 -164.5 t43 -233q0 -125 -40 -233.5t-113.5 -188t-178 -125.5t-233.5 -46q-123 0 -225.5 44t-176 135t-114.5 228t-41 326zM268 737q0 -160 30 -274.5t84 -187t128 -106.5t162 -34q92 0 166.5 34t129 92t83 139t28.5 178q0 104 -32.5 180t-86 125t-122 73.5t-140.5 24.5 q-117 0 -228.5 -56.5t-201.5 -133.5v-54z" />
<glyph unicode="7" horiz-adv-x="1093" d="M53 1411v156h1012v-29l-684 -1538h-170l637 1411h-795z" />
<glyph unicode="8" horiz-adv-x="1267" d="M96 424q0 88 31 159.5t82 127t118.5 96.5t141.5 72q-59 25 -111.5 54.5t-92.5 70t-63.5 96t-23.5 129.5q0 92 37 158.5t99.5 111.5t144.5 66.5t170 21.5q84 0 166 -20.5t146.5 -63.5t104 -111.5t39.5 -162.5q0 -78 -25.5 -133.5t-67.5 -96.5t-97 -70.5t-115 -51.5 q70 -29 140.5 -69t126 -95.5t90 -126t34.5 -162.5q0 -98 -42 -180t-115.5 -140.5t-173 -91t-215.5 -32.5q-113 0 -210.5 31.5t-168 89t-110.5 139.5t-40 184zM252 455q0 -74 27.5 -133.5t78 -100.5t119 -63.5t148.5 -22.5q78 0 148.5 21.5t124.5 62.5t86 99.5t32 134.5 q0 80 -35 138t-90 101t-126 74t-142 57q-72 -25 -138.5 -56.5t-118 -74.5t-83 -100t-31.5 -137zM315 1206q0 -66 27 -108.5t71 -72.5t100 -51.5t116 -39.5q49 14 105.5 35.5t104.5 54.5t78.5 80t30.5 113q0 59 -26.5 103t-70.5 73.5t-102.5 45t-121.5 15.5 q-135 0 -223.5 -64.5t-88.5 -183.5z" />
<glyph unicode="9" horiz-adv-x="1320" d="M72 1001q0 135 44 243t122.5 184.5t188.5 117.5t239 41q135 0 236.5 -43t170 -120.5t103 -186.5t34.5 -238q0 -137 -36.5 -275t-102 -267t-157 -246t-199.5 -211h-187q147 123 259 272.5t178 309.5q-78 -47 -177.5 -83t-216.5 -36q-111 0 -203 38t-157.5 108.5t-102 170 t-36.5 221.5zM231 1004q0 -184 103.5 -292t279.5 -108q111 0 216.5 42t191.5 108q29 121 29 233q0 207 -95.5 326t-289.5 119q-92 0 -172 -29t-138.5 -84t-91.5 -135t-33 -180z" />
<glyph unicode=":" horiz-adv-x="485" d="M162 119v250h162v-250h-162zM162 119zM162 696v250h162v-250h-162z" />
<glyph unicode=";" horiz-adv-x="485" d="M162 0zM162 119v250h162v-41l-86 -508h-64l27 299h-39zM162 696v250h162v-250h-162z" />
<glyph unicode="&#x3c;" d="M268 791v26l903 451v-117l-716 -346l716 -346v-117z" />
<glyph unicode="=" d="M268 477v105h903v-105h-903zM268 1028v105h903v-105h-903z" />
<glyph unicode="&#x3e;" d="M268 342v117l719 346l-719 346v117l903 -451v-26z" />
<glyph unicode="?" horiz-adv-x="987" d="M37 1434q74 63 169 108t234 45q111 0 197 -32.5t145.5 -89t90 -134.5t30.5 -168q0 -94 -30.5 -165.5t-77.5 -129t-101.5 -105.5t-102.5 -97.5t-81 -103.5t-37 -124h-121q0 78 31 137.5t76 109.5t97 97t97 99.5t75 116t30 147.5q0 135 -86 221t-252 86q-109 0 -184.5 -38 t-141.5 -95zM332 0v250h162v-250h-162z" />
<glyph unicode="@" horiz-adv-x="1466" d="M111 506q0 168 43 316.5t128 259t212 174t297 63.5q125 0 215 -36t147 -98.5t85 -147.5t28 -183v-668h-103v82q-57 -41 -120.5 -64.5t-137.5 -23.5q-139 0 -219 87t-80 257q0 166 79 255t222 89q74 0 137.5 -22.5t120.5 -61.5v70q0 166 -92 266.5t-285 100.5 q-139 0 -244.5 -53.5t-177 -148.5t-107.5 -225t-36 -282q0 -164 41 -300t123 -234.5t204 -153.5t281 -55q143 0 274.5 50t223.5 171l64 -72q-88 -129 -234.5 -195.5t-333.5 -66.5q-184 0 -325.5 65.5t-236.5 180t-144 269.5t-49 335zM709 524q0 -125 58 -188.5t153 -63.5 q63 0 124.5 27t118.5 68v329q-63 37 -120.5 58.5t-116.5 21.5q-102 0 -159.5 -64.5t-57.5 -187.5z" />
<glyph unicode="A" horiz-adv-x="1470" d="M27 0l694 1587h29l694 -1587h-176l-203 473h-668l-200 -473h-170zM449 590h567l-283 665z" />
<glyph unicode="B" horiz-adv-x="1378" d="M162 0v1567h653q115 0 196 -35t133 -91.5t76.5 -130t24.5 -153.5q0 -129 -53 -203.5t-131 -113.5q45 -23 88 -59t75.5 -86t52 -112.5t19.5 -136.5q0 -86 -28.5 -166.5t-84 -143t-137 -99.5t-188.5 -37h-696zM324 156h514q72 0 127 25.5t93 68.5t57.5 99.5t19.5 119.5 t-19.5 119.5t-55.5 98.5t-86 66.5t-114 24.5h-536v-622zM324 889h530q115 0 175.5 68.5t60.5 177.5q0 55 -17.5 105t-52.5 88t-88 60.5t-127 22.5h-481v-522z" />
<glyph unicode="C" horiz-adv-x="1521" d="M111 795q0 182 55 328.5t153.5 250t233.5 158.5t297 55q174 0 317.5 -60.5t253.5 -158.5l-98 -129q-102 86 -218 139.5t-257 53.5q-123 0 -228.5 -43t-182.5 -126t-121 -202t-44 -270q0 -154 44 -276t121 -206t181.5 -129t225.5 -45q70 0 140.5 16.5t132 49t112.5 84 t86 121.5l119 -97q-43 -84 -106.5 -146.5t-141.5 -103.5t-165 -60t-175 -19q-158 0 -293 58t-233.5 164.5t-153.5 257t-55 335.5z" />
<glyph unicode="D" horiz-adv-x="1501" d="M162 0v1567h493q203 0 343.5 -67.5t227.5 -176.5t126 -249t39 -283t-38 -284.5t-125 -254.5t-227.5 -182.5t-345.5 -69.5h-493zM324 156h338q154 0 261 50t174.5 136t99.5 199.5t32 242.5q0 127 -31 241t-98.5 200t-176 136t-261.5 50h-338v-1255z" />
<glyph unicode="E" horiz-adv-x="1296" d="M162 0v1567h1003v-156h-841v-532h833v-150h-833v-573h845v-156h-1007z" />
<glyph unicode="F" horiz-adv-x="1222" d="M162 0v1567h962v-156h-800v-582h792v-147h-792v-682h-162z" />
<glyph unicode="G" horiz-adv-x="1624" d="M111 799q0 201 62.5 349t166.5 245.5t240.5 145.5t283.5 48q160 0 301.5 -51t249.5 -139l-82 -135q-109 86 -225.5 128t-239.5 42q-121 0 -229.5 -41t-189 -122t-129 -201t-48.5 -277q0 -147 42 -268.5t118 -207.5t180.5 -133t231.5 -47q125 0 223 45t167 124 t104.5 184.5t35.5 228.5v22h-483v131h618q6 -31 10.5 -65.5t4.5 -81.5q0 -160 -49.5 -296t-138.5 -235.5t-215 -155.5t-281 -56q-158 0 -291 58t-230.5 165.5t-152.5 258t-55 337.5z" />
<glyph unicode="H" horiz-adv-x="1456" d="M162 0v1567h162v-688h811v688h161v-1567h-161v729h-811v-729h-162z" />
<glyph unicode="I" horiz-adv-x="487" d="M162 0v1567h162v-1567h-162z" />
<glyph unicode="J" horiz-adv-x="927" d="M33 66l16 143q92 -45 156.5 -59.5t111.5 -14.5q133 0 219.5 87t86.5 272v1073h161v-1106q0 -121 -31.5 -211t-89 -150.5t-136 -90t-173.5 -29.5q-76 0 -157.5 20t-163.5 66z" />
<glyph unicode="K" horiz-adv-x="1423" d="M162 0v1567h162v-779l839 779h189l-580 -541l600 -1026h-186l-539 909l-323 -301v-608h-162z" />
<glyph unicode="L" horiz-adv-x="1132" d="M162 0v1567h162v-1411h753v-156h-915z" />
<glyph unicode="M" horiz-adv-x="1787" d="M162 0v1587h24l703 -1302l713 1302h26v-1587h-153v1042l-578 -1062h-25l-555 1052v-1032h-155z" />
<glyph unicode="N" horiz-adv-x="1576" d="M162 0v1587h24l1071 -1220v1200h158v-1587h-26l-1070 1220v-1200h-157z" />
<glyph unicode="O" horiz-adv-x="1654" d="M111 784q0 154 47 299.5t138 257t224 179t305 67.5q174 0 308.5 -67.5t225.5 -180t138 -258t47 -299.5t-47 -298t-138 -256.5t-225.5 -180t-308.5 -67.5q-176 0 -309 68.5t-223 181t-136 258t-46 296.5zM272 784q0 -133 38 -251.5t110 -206.5t174 -139.5t233 -51.5 q129 0 231.5 51.5t175.5 138.5t110.5 204.5t37.5 252.5t-37.5 253t-110.5 206t-176.5 139.5t-232.5 51.5t-232.5 -51.5t-174 -139.5t-108.5 -205.5t-38 -251.5z" />
<glyph unicode="P" horiz-adv-x="1292" d="M162 0v1567h631q104 0 183 -38t131 -102.5t78.5 -148.5t26.5 -178q0 -90 -25.5 -175t-76.5 -150.5t-131 -104.5t-186 -39h-467v-631h-164zM326 776h467q70 0 120 27.5t82.5 72t49 101.5t16.5 119q0 59 -16.5 116.5t-49 101.5t-84 70.5t-120.5 26.5h-465v-635z" />
<glyph unicode="Q" horiz-adv-x="1654" d="M111 801q0 152 47 293t138 250.5t225 176t306 66.5t306.5 -66.5t225.5 -176t138 -252t47 -291.5q0 -190 -74.5 -363.5t-218.5 -283.5l201 -322h-166l-153 248q-68 -31 -145 -48.5t-163 -17.5q-176 0 -309 68t-223 178.5t-136 251.5t-46 289zM272 801q0 -127 36 -241 t106.5 -202t174 -139t236.5 -51q121 0 224 45l-211 344h163l166 -270q104 88 159.5 222t55.5 290q0 127 -36.5 241.5t-108.5 201.5t-175.5 138.5t-236.5 51.5t-235.5 -51.5t-173 -137.5t-107.5 -200.5t-37 -241.5z" />
<glyph unicode="R" horiz-adv-x="1374" d="M162 0v1567h586q111 0 190.5 -37t131.5 -98.5t76.5 -140.5t24.5 -165q0 -68 -15 -131t-48 -118.5t-83 -98.5t-120 -65l434 -713h-184l-412 688h-419v-688h-162zM324 809h403q74 0 128 24.5t88 66.5t50.5 96.5t16.5 113.5t-16.5 113.5t-51.5 96.5t-88 66.5t-127 24.5h-403 v-602z" />
<glyph unicode="S" horiz-adv-x="1327" d="M102 125l39 141q63 -37 136 -62.5t146 -43t141.5 -24.5t123.5 -7q193 0 286 79t93 216q0 96 -48 153.5t-159 92.5q-35 10 -90 25.5t-117.5 31.5t-125 34.5t-107.5 35.5q-137 49 -221 135t-84 237q0 100 39 179t109.5 131.5t169.5 80t220 27.5q281 0 521 -143l-39 -144 q-119 66 -244 102t-248 36q-166 0 -266.5 -71t-100.5 -212q0 -94 51.5 -148.5t170.5 -95.5q45 -16 104.5 -32.5t121.5 -33t122.5 -33.5t107.5 -36q145 -53 210 -139t65 -219q0 -203 -138.5 -320.5t-404.5 -117.5q-57 0 -131 7t-151.5 23.5t-155.5 44t-146 70.5z" />
<glyph unicode="T" horiz-adv-x="1232" d="M55 1411v156h1123v-156h-482v-1411h-161v1411h-480z" />
<glyph unicode="U" horiz-adv-x="1433" d="M143 614v953h164v-951q0 -113 21.5 -201.5t69.5 -151t126 -95.5t193 -33q217 0 316.5 119t99.5 362v951h157v-951q0 -326 -148.5 -481t-424.5 -155q-295 0 -434.5 163.5t-139.5 470.5z" />
<glyph unicode="V" horiz-adv-x="1470" d="M27 1567h176l532 -1258l537 1258h172l-694 -1587h-29z" />
<glyph unicode="W" horiz-adv-x="2101" d="M33 1567h168l362 -1186l484 1206h24l451 -1210l385 1190h159l-520 -1587h-26l-467 1255l-496 -1255h-27z" />
<glyph unicode="X" horiz-adv-x="1400" d="M33 0l569 815l-528 752h182l453 -643l471 643h168l-551 -768l563 -799h-184l-484 686l-487 -686h-172z" />
<glyph unicode="Y" horiz-adv-x="1439" d="M12 1567h185l524 -707l528 707h178l-622 -836v-731h-164v727z" />
<glyph unicode="Z" horiz-adv-x="1411" d="M84 0v27l969 1384h-951v156h1229v-29l-966 -1382h952v-156h-1233z" />
<glyph unicode="[" horiz-adv-x="802" d="M285 -414v2392h426v-104h-320v-2183h320v-105h-426z" />
<glyph unicode="\" horiz-adv-x="761" d="M-8 1714h106l670 -1943h-106z" />
<glyph unicode="]" horiz-adv-x="802" d="M92 -309h320v2183h-320v104h426v-2392h-426v105z" />
<glyph unicode="^" d="M287 625l420 962h24l422 -962h-115l-319 737l-318 -737h-114z" />
<glyph unicode="_" horiz-adv-x="907" d="M0 -145h907v-105h-907v105z" />
<glyph unicode="`" horiz-adv-x="731" d="M152 1294h143l285 -325h-117z" />
<glyph unicode="a" horiz-adv-x="1030" d="M76 238q0 102 59.5 164.5t196.5 84.5l428 66q0 57 -13.5 99t-45 70t-83 40t-129.5 12q-72 0 -152.5 -15.5t-184.5 -62.5l-23 107q111 53 205 68.5t170 15.5q217 0 309 -79t92 -239v-569h-141v100q-94 -53 -186.5 -86.5t-200.5 -33.5q-147 0 -224 67.5t-77 190.5zM215 250 q0 -82 51.5 -126t153.5 -44q90 0 175 30.5t165 73.5v291l-381 -65q-51 -8 -83 -24.5t-50.5 -38t-24.5 -46.5t-6 -51z" />
<glyph unicode="b" horiz-adv-x="1173" d="M162 0v1567h147v-799q27 18 68 38.5t90 38t103.5 30t109.5 12.5q94 0 166 -37t119 -99.5t70.5 -144.5t23.5 -174q0 -90 -22.5 -171t-67.5 -144.5t-114 -100t-163 -36.5q-55 0 -110.5 12t-106.5 29.5t-95 39t-75 39.5v-100h-143zM307 209q27 -16 66 -34.5t85 -36t95 -29 t94 -11.5q66 0 115 24.5t83 69t51 105.5t17 133q0 150 -69.5 244t-200.5 94q-47 0 -95 -11.5t-92 -28.5t-83 -36.5t-66 -34.5v-448z" />
<glyph unicode="c" horiz-adv-x="987" d="M111 436q0 102 35.5 186.5t96 142.5t142.5 90t174 32q88 0 174 -29t158 -86l-66 -90q-66 51 -129 70.5t-121 19.5q-70 0 -129 -23.5t-102 -67.5t-67.5 -106.5t-24.5 -140.5q0 -68 18.5 -129t57.5 -108t97 -75t136 -28q96 0 159.5 41t110.5 109l78 -64q-49 -86 -138 -143 t-226 -57q-109 0 -190 38.5t-135 102t-81.5 145.5t-27.5 170z" />
<glyph unicode="d" horiz-adv-x="1169" d="M111 432q0 92 23.5 174t70.5 144.5t117.5 99.5t166.5 37q55 0 109.5 -12.5t104 -30t89 -38t68.5 -38.5v799h148v-1567h-144v100q-31 -18 -75 -39.5t-95 -39t-106.5 -29.5t-110.5 -12q-94 0 -162.5 36.5t-113.5 100t-67.5 144.5t-22.5 171zM258 430q0 -72 16.5 -133 t50 -105.5t83 -69t114.5 -24.5q45 0 94.5 11.5t95.5 29t85 36t65 34.5v448q-27 14 -65.5 34t-82.5 37t-92.5 28.5t-95.5 11.5q-131 0 -199.5 -94t-68.5 -244z" />
<glyph unicode="e" horiz-adv-x="1091" d="M111 426q0 88 27.5 171t82.5 147.5t139 103.5t197 39q115 0 196 -40t133 -102.5t76.5 -141.5t24.5 -157q0 -20 -1 -29t-1 -22h-729q4 -66 25.5 -121t63.5 -96t104.5 -64.5t148.5 -23.5q72 0 141.5 16.5t143.5 51.5l28 -101q-51 -33 -138 -55t-189 -22q-127 0 -217.5 37.5 t-147.5 101t-82.5 143.5t-25.5 164zM256 475h588q0 57 -17.5 111.5t-52.5 97.5t-88 68.5t-127 25.5q-70 0 -124 -23.5t-92 -64.5t-59.5 -96t-27.5 -119z" />
<glyph unicode="f" horiz-adv-x="681" d="M66 756v108h137v430q0 84 21.5 140.5t59.5 90.5t88 48t109 14q57 0 104.5 -11t84.5 -32l-35 -108q-55 32 -125 32h-4q-70 0 -114 -41t-44 -145v-418h254v-108h-254v-756h-145v756h-137z" />
<glyph unicode="g" horiz-adv-x="1122" d="M104 453q0 86 21.5 163.5t67 138t114 96.5t160.5 36q53 0 106.5 -11.5t102.5 -29t91 -38t73 -38.5v94h143v-884q0 -80 -24.5 -154t-78 -130t-138.5 -89t-203 -33q-98 0 -192.5 21.5t-166.5 60.5l25 111q86 -39 162.5 -56.5t148.5 -17.5q88 0 149.5 24.5t99.5 64.5 t54.5 93t16.5 113v143q-29 -16 -68 -36.5t-86 -37t-100.5 -28t-106.5 -11.5q-94 0 -163.5 35t-115.5 94.5t-69 138.5t-23 167zM250 449q0 -143 66.5 -232.5t195.5 -89.5q45 0 92 10t90 25.5t80 34t64 32.5v433q-25 14 -63 32.5t-83 34.5t-92 27.5t-92 11.5 q-127 0 -192.5 -90t-65.5 -229z" />
<glyph unicode="h" horiz-adv-x="1150" d="M162 0v1567h147v-799q29 20 73 40.5t99.5 38t118 29t127.5 11.5q76 0 132 -17.5t93 -58.5t55.5 -108.5t18.5 -167.5v-535h-147v516q0 143 -49.5 197.5t-149.5 54.5q-53 0 -108.5 -11.5t-105.5 -28.5t-91 -36.5t-66 -38.5v-653h-147z" />
<glyph unicode="i" horiz-adv-x="471" d="M156 1124v256h159v-256h-159zM162 0v864h147v-864h-147z" />
<glyph unicode="j" horiz-adv-x="565" d="M-55 -385l24 109q29 -16 63 -23.5t64 -7.5q70 0 115 43t45 153v975h147v-991q0 -86 -21.5 -143.5t-60 -92t-90 -49t-108.5 -14.5q-55 0 -100.5 11.5t-77.5 29.5zM250 1124v256h160v-256h-160z" />
<glyph unicode="k" horiz-adv-x="1091" d="M162 0v1567h147v-1133l506 430h174l-336 -282l383 -582h-166l-325 492l-236 -199v-293h-147z" />
<glyph unicode="l" horiz-adv-x="471" d="M162 0v1567h147v-1567h-147z" />
<glyph unicode="m" horiz-adv-x="1644" d="M150 0v864h145v-98q59 43 152.5 82t211.5 39q98 0 152.5 -34t77.5 -108q174 141 383 142q135 0 191.5 -64.5t56.5 -216.5v-606h-148v588q0 100 -34.5 140t-114.5 40q-84 0 -167 -35t-153 -88q2 -10 2 -18.5v-18.5v-608h-147v588q0 98 -35 139t-115 41q-45 0 -90 -10 t-86 -26.5t-75.5 -37t-59.5 -41.5v-653h-147z" />
<glyph unicode="n" horiz-adv-x="1140" d="M152 0v864h143v-98q31 20 76 42.5t100 39t117.5 28t128.5 11.5q76 0 132 -17.5t93 -58.5t55.5 -108.5t18.5 -167.5v-535h-148v518q0 141 -49 195.5t-151 54.5q-53 0 -107.5 -11.5t-106 -27.5t-92 -36.5t-65.5 -39.5v-653h-145z" />
<glyph unicode="o" horiz-adv-x="1091" d="M111 434q0 86 28.5 168t84 145.5t137 101.5t186.5 38q104 0 186 -39t137.5 -102.5t84 -145.5t28.5 -168t-28.5 -168t-85 -145.5t-137.5 -101t-185 -37.5t-186 37.5t-137.5 101t-84 145.5t-28.5 170zM256 434q0 -70 19.5 -132t56.5 -108.5t91 -73t124 -26.5t124 26.5 t91 73t56.5 107.5t19.5 131t-19.5 131.5t-56.5 107.5t-91 73.5t-124 27.5t-124 -26.5t-91 -72.5t-56.5 -107.5t-19.5 -131.5z" />
<glyph unicode="p" horiz-adv-x="1161" d="M150 -414v1278h145v-100q31 18 75 39.5t95 40t106.5 31t108.5 12.5q94 0 163.5 -38t115 -100.5t68 -144.5t22.5 -170q0 -92 -24 -174t-71 -144.5t-118.5 -99t-167.5 -36.5q-55 0 -108.5 11t-102.5 29.5t-90 39t-70 38.5v-512h-147zM297 207q27 -16 64.5 -34.5t81.5 -35 t92.5 -28t95.5 -11.5q133 0 201.5 92.5t68.5 243.5q0 147 -67.5 240.5t-196.5 93.5q-47 0 -95 -11.5t-93.5 -28.5t-85 -36.5t-66.5 -36.5v-448z" />
<glyph unicode="q" horiz-adv-x="1159" d="M111 434q0 88 22.5 170t67.5 144.5t113.5 100.5t162.5 38q55 0 110.5 -12.5t106.5 -31t95.5 -40t74.5 -39.5v100h144v-1278h-148v512q-29 -18 -69.5 -38.5t-90 -39t-102.5 -29.5t-109 -11q-96 0 -166.5 36.5t-117.5 99t-70.5 144.5t-23.5 174zM256 434q0 -152 69.5 -244 t200.5 -92q47 0 95.5 11.5t92.5 28t83 34.5t65 35v448q-29 16 -67.5 36t-84.5 37t-95.5 28.5t-94.5 11.5q-129 0 -196.5 -93t-67.5 -241z" />
<glyph unicode="r" horiz-adv-x="944" d="M150 0v864h143v-174q59 86 143 141.5t195 55.5q78 0 148.5 -30t115.5 -89l-39 -102q-47 53 -102.5 77.5t-124.5 24.5q-104 0 -182 -52t-150 -157v-559h-147z" />
<glyph unicode="s" horiz-adv-x="997" d="M96 63l25 105q43 -18 95 -33.5t105.5 -27t104.5 -17.5t96 -6q49 0 96.5 8t83 27.5t58 49.5t22.5 73q0 59 -41 83.5t-106 36.5q-90 16 -137 24.5t-74 14t-46.5 9.5t-51.5 12q-39 10 -79 25.5t-72 40t-52.5 61.5t-20.5 90q0 61 30 108.5t82 78t125 46t157 15.5 q102 0 197 -20.5t181 -59.5l-30 -105q-82 37 -171 57.5t-175 20.5q-115 0 -186.5 -36.5t-71.5 -110.5q0 -33 14 -55.5t38.5 -37t56.5 -23.5t67 -15q4 0 37.5 -6.5t79 -14.5t92.5 -18t82 -19q94 -25 150 -65.5t56 -130.5q0 -72 -34.5 -123t-91 -83t-130 -47t-153.5 -15 q-111 0 -219.5 24.5t-188.5 58.5z" />
<glyph unicode="t" horiz-adv-x="681" d="M66 756v108h137v404h145v-404h254v-108h-254v-461q0 -111 46 -154t116 -43q33 0 65.5 8.5t59.5 24.5l33 -104q-76 -47 -185 -47q-59 0 -110 16t-89 51t-59.5 92.5t-21.5 139.5v477h-137z" />
<glyph unicode="u" horiz-adv-x="1175" d="M162 330v534h145v-514q0 -72 12.5 -121t38 -77.5t63.5 -41t87 -12.5q53 0 108.5 11.5t106.5 28t92 36t66 37.5v653h145v-864h-141v98q-31 -20 -76 -41.5t-100.5 -38t-118 -27.5t-125.5 -11q-156 0 -229.5 79.5t-73.5 270.5z" />
<glyph unicode="v" horiz-adv-x="1011" d="M27 864h149l330 -649l336 649h143l-465 -884h-28z" />
<glyph unicode="w" horiz-adv-x="1409" d="M33 864h143l217 -618l307 641h27l283 -639l233 616h133l-342 -884h-24l-301 671l-322 -671h-25z" />
<glyph unicode="x" horiz-adv-x="1015" d="M37 0l391 451l-356 413h159l287 -334l293 334h152l-367 -424l381 -440h-160l-313 362l-318 -362h-149z" />
<glyph unicode="y" horiz-adv-x="1005" d="M27 864h149l326 -639l332 639h143l-664 -1278h-143l260 502z" />
<glyph unicode="z" horiz-adv-x="972" d="M84 0v27l586 721h-568v116h789v-26l-584 -719h576v-119h-799z" />
<glyph unicode="{" horiz-adv-x="802" d="M115 754v104h90q47 0 76.5 45t29.5 121v635q0 162 80 240.5t215 78.5h105v-104h-88q-96 0 -148.5 -60.5t-52.5 -177.5l-2 -630q0 -68 -23.5 -119t-79.5 -80q55 -29 79 -80t24 -119l2 -678q0 -117 52 -178t149 -61h88v-105h-105q-135 0 -215 80t-80 240v682 q0 76 -29.5 121t-76.5 45h-90z" />
<glyph unicode="|" horiz-adv-x="735" d="M313 -211v1989h109v-1989h-109z" />
<glyph unicode="}" horiz-adv-x="802" d="M92 -309h88q96 0 148.5 61.5t52.5 177.5l2 678q0 68 23.5 119t78.5 80q-55 29 -78.5 80t-23.5 119l-2 630q0 117 -52.5 177.5t-148.5 60.5h-88v104h105q135 0 215 -78.5t80 -240.5v-635q0 -76 29.5 -121t76.5 -45h90v-104h-90q-47 0 -76.5 -45t-29.5 -121v-682 q0 -160 -80 -240t-215 -80h-105v105z" />
<glyph unicode="~" d="M266 772q57 63 122 99t144 36q47 0 94.5 -13t104.5 -36q49 -20 89 -35.5t93 -15.5t98.5 22.5t102.5 77.5l60 -71q-53 -59 -118 -96.5t-151 -37.5q-49 0 -95 13.5t-99 36.5q-49 23 -93.5 37t-91.5 14q-53 0 -98 -22.5t-104 -82.5z" />
<glyph unicode="&#xa1;" horiz-adv-x="483" d="M158 -414l28 1129h103l28 -1129h-159zM158 903v250h161v-250h-161z" />
<glyph unicode="&#xa2;" d="M186 786q0 137 41 247t115 190t174 126t217 54v248h90v-248q123 -6 227.5 -51t190.5 -115l-86 -104q-76 68 -160 102.5t-172 40.5v-991q205 18 330 213l100 -80q-66 -119 -177 -184.5t-253 -75.5v-242h-90v240q-123 8 -224 58t-173 133t-111 195.5t-39 243.5zM328 784 q0 -109 29.5 -196.5t83 -153t128 -104.5t164.5 -47v991q-88 -8 -161.5 -44t-128 -98.5t-85 -149.5t-30.5 -198z" />
<glyph unicode="&#xa3;" d="M162 238q0 115 70.5 183t187.5 68q66 0 121 -22.5t102 -56.5q-8 84 -36.5 157.5t-67.5 145.5h-336v96h284q-47 86 -82.5 175t-35.5 196q0 90 29.5 164.5t85 129t134 84t175.5 29.5q104 0 201.5 -35.5t166.5 -109.5l-61 -121q-53 57 -127 84t-146 27q-61 0 -116.5 -19.5 t-95.5 -56.5t-63.5 -90.5t-23.5 -122.5q0 -86 33 -168t74 -166h432v-96h-383q37 -78 64.5 -161t27.5 -175q0 -41 -6 -80q68 -66 132.5 -114t152.5 -48q61 0 112.5 24.5t92.5 69.5l53 -129q-53 -66 -121 -93t-133 -27q-104 0 -184 57t-144 131q-43 -88 -119.5 -138 t-175.5 -50q-57 0 -107 17t-87 51t-58.5 82t-21.5 108zM272 238q0 -74 45 -113t115 -39q84 0 135 53.5t68 139.5q-47 49 -94 78.5t-109 29.5q-70 0 -115 -38t-45 -111z" />
<glyph unicode="&#xa4;" d="M229 287l160 168q-45 59 -67.5 131.5t-22.5 150.5t22.5 151t65.5 132l-158 168l68 74l158 -170q51 43 117.5 67.5t148.5 24.5t147.5 -24.5t116.5 -67.5l158 168l67 -76l-157 -166q45 -59 67.5 -131t22.5 -148q0 -78 -22.5 -151.5t-67.5 -132.5l157 -166l-67 -74l-160 168 q-51 -41 -117.5 -64.5t-146.5 -23.5t-145.5 23.5t-116.5 64.5l-162 -172zM397 739q0 -68 21.5 -130t62.5 -111t101.5 -79t138.5 -30t137.5 30t100 79t62 111.5t21.5 129.5q0 68 -21.5 130.5t-62 111.5t-100 79t-137.5 30t-138.5 -30t-101.5 -79t-62.5 -111.5t-21.5 -130.5z " />
<glyph unicode="&#xa5;" d="M123 1567h174l424 -611l430 611h166l-516 -740v-155h358v-97h-358v-233h358v-96h-358v-246h-162v246h-346v96h346v233h-346v97h346v155z" />
<glyph unicode="&#xa6;" horiz-adv-x="735" d="M313 -211v782h109v-782h-109zM313 995v783h109v-783h-109z" />
<glyph unicode="&#xa7;" horiz-adv-x="1589" d="M94 -279l39 142q63 -37 136 -62.5t145.5 -43t141.5 -24.5t124 -7q193 0 286 78.5t93 215.5q0 102 -52.5 156.5t-154.5 89.5q-63 23 -143 41.5t-163 42t-162 55t-140.5 79.5t-99.5 118t-38 168q0 135 73 230.5t202 142.5q0 111 39 194.5t109.5 139t170 83t220.5 27.5 q281 0 520 -143l-39 -144q-119 66 -244 102t-248 36q-168 0 -267 -71t-99 -212q0 -96 52 -149.5t169 -94.5q47 -16 106.5 -31.5t121 -33t120.5 -34.5t109 -36q145 -55 209.5 -140t64.5 -218q0 -141 -69.5 -243.5t-204.5 -151.5q0 -209 -138.5 -328t-404.5 -119q-57 0 -131 7 t-152 23.5t-155.5 44t-145.5 70.5zM268 752q0 -92 49.5 -147.5t171.5 -96.5q47 -16 106.5 -32.5t121 -33t121 -34t108.5 -35.5q86 -33 149.5 -80t94.5 -119q143 78 143 252q0 55 -14 93t-41 65.5t-65.5 47t-86.5 38.5q-115 43 -201.5 66.5t-154.5 39t-118 28.5t-91 34.5 t-74.5 57.5t-66.5 97q-72 -35 -112 -94t-40 -147z" />
<glyph unicode="&#xa8;" horiz-adv-x="952" d="M201 1024v240h123v-240h-123zM633 1024v240h123v-240h-123z" />
<glyph unicode="&#xaa;" horiz-adv-x="657" d="M82 1098q0 72 37 110.5t114 55.5l222 41q0 76 -30 109.5t-112 33.5q-41 0 -85 -10.5t-101 -38.5l-16 69q61 37 114.5 47.5t96.5 10.5q123 0 175 -51.5t52 -159.5v-375h-90v57q-51 -33 -100.5 -52t-106.5 -19q-84 0 -127 45t-43 127zM174 1102q0 -109 109 -109 q45 0 88 16.5t84 45.5v194l-185 -39q-53 -10 -74.5 -35.5t-21.5 -72.5z" />
<glyph unicode="&#xab;" horiz-adv-x="1024" d="M100 0zM100 414v22l344 410h105l-332 -422l332 -424h-105zM475 414v22l344 410h105l-332 -422l332 -424h-105z" />
<glyph unicode="&#xac;" horiz-adv-x="1228" d="M162 752v104h905v-856h-109v752h-796z" />
<glyph unicode="&#xad;" horiz-adv-x="636" d="M43 500v110h547v-110h-547zM43 500z" />
<glyph unicode="&#xaf;" horiz-adv-x="978" d="M152 1094v88h675v-88h-675z" />
<glyph unicode="&#xb0;" horiz-adv-x="698" d="M74 1386q0 55 18.5 107.5t53 93.5t87 65.5t117.5 24.5q66 0 117 -24.5t86 -64.5t53.5 -93t18.5 -109q0 -55 -18.5 -107t-53.5 -93t-86 -65.5t-119 -24.5q-66 0 -117 24.5t-85.5 65.5t-53 93t-18.5 107zM162 1386q0 -41 12 -79.5t35.5 -69.5t58.5 -49.5t80 -18.5t79 18.5 t57.5 48.5t37 68.5t13.5 81.5t-12.5 82t-36 69t-58.5 48.5t-80 18.5t-78.5 -18.5t-57.5 -48.5t-37 -68.5t-13 -82.5z" />
<glyph unicode="&#xb1;" d="M268 51zM268 52v104h903v-104h-903zM268 764v104h400v428h106v-428h397v-104h-397v-430h-106v430h-400z" />
<glyph unicode="&#xb2;" horiz-adv-x="815" d="M106 692v14q123 104 211.5 185.5t144.5 148t82.5 124.5t26.5 116q0 82 -49 130t-147 48q-57 0 -104.5 -17.5t-104.5 -58.5l-43 92q53 41 114.5 65.5t151.5 24.5q141 0 217 -67.5t76 -194.5q0 -129 -84 -246.5t-264 -257.5h354v-106h-582zM106 692z" />
<glyph unicode="&#xb3;" horiz-adv-x="815" d="M113 680zM113 821l55 76q47 -53 100.5 -81t124.5 -28q104 0 159.5 50.5t55.5 119.5q0 63 -45 104.5t-133 41.5h-80v77h82q80 0 116 42t36 96q0 66 -48.5 102.5t-134.5 36.5q-55 0 -110 -17.5t-96 -52.5l-48 90q53 39 117 62.5t142 23.5q127 0 203.5 -61t76.5 -166 q0 -59 -26.5 -109.5t-79.5 -78.5q59 -27 96 -76t37 -127q0 -63 -24.5 -112.5t-66.5 -83t-99.5 -52t-121.5 -18.5q-104 0 -172.5 42t-115.5 99z" />
<glyph unicode="&#xb4;" horiz-adv-x="731" d="M152 969l284 325h144l-312 -325h-116z" />
<glyph unicode="&#xb6;" horiz-adv-x="1527" d="M90 1116q0 86 27.5 167t84 144.5t141.5 101.5t202 38h821v-1981h-119v1870h-436v-1870h-119v1082h-147q-121 0 -207 38.5t-141.5 101t-81 143.5t-25.5 165zM211 1116q0 -66 19.5 -127t61.5 -108t105.5 -76t149.5 -29h145v680h-145q-86 0 -148.5 -27.5t-104.5 -74.5 t-62.5 -108.5t-20.5 -129.5z" />
<glyph unicode="&#xb7;" horiz-adv-x="434" d="M135 698v250h162v-250h-162zM135 698z" />
<glyph unicode="&#xb8;" horiz-adv-x="612" d="M195 -414l102 351h121l-125 -351h-98z" />
<glyph unicode="&#xb9;" horiz-adv-x="815" d="M150 692zM150 1272l413 292h21v-872h-113v680l-272 -188z" />
<glyph unicode="&#xba;" horiz-adv-x="690" d="M98 1227q0 57 16.5 111.5t48.5 95.5t78 66.5t105 25.5t105.5 -25.5t77 -67.5t47 -95.5t16.5 -110.5q0 -59 -16.5 -113.5t-47 -95.5t-76.5 -66.5t-106 -25.5q-59 0 -105 25.5t-78 67.5t-48.5 96.5t-16.5 111.5zM193 1227q0 -92 39.5 -157.5t113.5 -65.5q72 0 113 65.5 t41 157.5q0 45 -10.5 85t-30 70.5t-48 48t-65.5 17.5t-65.5 -17.5t-48 -48t-29.5 -70.5t-10 -85z" />
<glyph unicode="&#xbb;" horiz-adv-x="1024" d="M100 0l330 424l-330 422h105l344 -410v-22l-344 -414h-105zM100 0zM475 0l330 424l-330 422h105l344 -410v-22l-344 -414h-105z" />
<glyph unicode="&#xbc;" horiz-adv-x="1964" d="M150 0zM150 1272l413 292h21v-872h-113v680l-272 -188zM387 -16l1116 1656l78 -55l-1116 -1659zM1139 231v15l530 626h16v-555h129v-86h-129v-231h-96v231h-450zM1292 317h297v340z" />
<glyph unicode="&#xbd;" horiz-adv-x="1964" d="M150 0zM150 1272l413 292h21v-872h-113v680l-272 -188zM387 -16l1116 1656l78 -55l-1116 -1659zM1255 0v14q123 104 211.5 185.5t144.5 148t82.5 124.5t26.5 116q0 82 -49 130t-147 48q-57 0 -104.5 -17.5t-104.5 -58.5l-43 92q53 41 114.5 65.5t151.5 24.5 q141 0 217 -67.5t76 -194.5q0 -129 -84 -246.5t-264 -257.5h354v-106h-582z" />
<glyph unicode="&#xbe;" horiz-adv-x="1964" d="M113 0zM113 821l55 76q47 -53 100.5 -81t124.5 -28q104 0 159.5 50.5t55.5 119.5q0 63 -45 104.5t-133 41.5h-80v77h82q80 0 116 42t36 96q0 66 -48.5 102.5t-134.5 36.5q-55 0 -110 -17.5t-96 -52.5l-48 90q53 39 117 62.5t142 23.5q127 0 203.5 -61t76.5 -166 q0 -59 -26.5 -109.5t-79.5 -78.5q59 -27 96 -76t37 -127q0 -63 -24.5 -112.5t-66.5 -83t-99.5 -52t-121.5 -18.5q-104 0 -172.5 42t-115.5 99zM387 -16l1116 1656l78 -55l-1116 -1659zM1139 231v15l530 626h16v-555h129v-86h-129v-231h-96v231h-450zM1292 317h297v340z" />
<glyph unicode="&#xbf;" horiz-adv-x="987" d="M59 -2q0 94 31 166t78 129t101.5 105t102.5 97.5t80.5 103.5t36.5 124h121q0 -78 -30.5 -137.5t-75.5 -109.5t-97.5 -97t-97.5 -99.5t-74.5 -116t-29.5 -147.5q0 -135 86 -221t252 -86q109 0 184.5 37t140.5 96l58 -114q-74 -63 -169 -108.5t-235 -45.5q-111 0 -196.5 32 t-145 89t-90.5 135t-31 168zM469 911v250h162v-250h-162z" />
<glyph unicode="&#xc0;" horiz-adv-x="1470" d="M27 0l694 1587h29l694 -1587h-176l-203 473h-668l-200 -473h-170zM27 0zM420 2013h143l285 -325h-117zM449 590h567l-283 665z" />
<glyph unicode="&#xc1;" horiz-adv-x="1470" d="M27 0l694 1587h29l694 -1587h-176l-203 473h-668l-200 -473h-170zM27 0zM449 590h567l-283 665zM619 1688l284 325h144l-312 -325h-116z" />
<glyph unicode="&#xc2;" horiz-adv-x="1470" d="M27 0l694 1587h29l694 -1587h-176l-203 473h-668l-200 -473h-170zM27 0zM426 1688l295 325h27l293 -325h-123l-184 213l-185 -213h-123zM449 590h567l-283 665z" />
<glyph unicode="&#xc3;" horiz-adv-x="1470" d="M27 0l694 1587h29l694 -1587h-176l-203 473h-668l-200 -473h-170zM27 0zM377 1831q35 61 85 103t121 42q45 0 80 -17t86 -50q43 -29 76 -44.5t68 -15.5q43 0 74.5 26t64.5 77l61 -53q-37 -66 -88 -106t-118 -40q-43 0 -78 16.5t-88 51.5q-43 29 -75 44t-69 15 q-39 0 -69.5 -22.5t-69.5 -81.5zM449 590h567l-283 665z" />
<glyph unicode="&#xc4;" horiz-adv-x="1470" d="M27 0l694 1587h29l694 -1587h-176l-203 473h-668l-200 -473h-170zM27 0zM449 590h567l-283 665zM457 1743v240h123v-240h-123zM889 1743v240h123v-240h-123z" />
<glyph unicode="&#xc5;" horiz-adv-x="1470" d="M27 0l694 1587h29l694 -1587h-176l-203 473h-668l-200 -473h-170zM27 0zM449 590h567l-283 665zM534 1831q0 39 13.5 75t39 63.5t62.5 45t84 17.5q49 0 86 -17.5t61.5 -45t37.5 -63.5t13 -75t-13 -75t-37.5 -64.5t-61.5 -46t-86 -17.5q-47 0 -84 17.5t-62.5 46t-39 64.5 t-13.5 75zM604 1831q0 -57 32.5 -100t98.5 -43q63 0 96 42t33 99q0 59 -34 102t-97 43q-61 0 -95 -43t-34 -100z" />
<glyph unicode="&#xc6;" horiz-adv-x="2127" d="M33 0l686 1567h1280v-156h-754v-532h746v-150h-746v-573h760v-156h-922v473h-677l-207 -473h-166zM457 590h626v821h-268z" />
<glyph unicode="&#xc7;" horiz-adv-x="1521" d="M111 0zM111 795q0 182 55 328.5t153.5 250t233.5 158.5t297 55q174 0 317.5 -60.5t253.5 -158.5l-98 -129q-102 86 -218 139.5t-257 53.5q-123 0 -228.5 -43t-182.5 -126t-121 -202t-44 -270q0 -154 44 -276t121 -206t181.5 -129t225.5 -45q70 0 140.5 16.5t132 49 t112.5 84t86 121.5l119 -97q-43 -84 -106.5 -146.5t-141.5 -103.5t-165 -60t-175 -19q-158 0 -293 58t-233.5 164.5t-153.5 257t-55 335.5zM662 -414l102 351h121l-125 -351h-98z" />
<glyph unicode="&#xc8;" horiz-adv-x="1296" d="M162 0v1567h1003v-156h-841v-532h833v-150h-833v-573h845v-156h-1007zM162 0zM394 2013h143l285 -325h-117z" />
<glyph unicode="&#xc9;" horiz-adv-x="1296" d="M162 0v1567h1003v-156h-841v-532h833v-150h-833v-573h845v-156h-1007zM162 0zM514 1688l284 325h144l-312 -325h-116z" />
<glyph unicode="&#xca;" horiz-adv-x="1296" d="M162 0v1567h1003v-156h-841v-532h833v-150h-833v-573h845v-156h-1007zM162 0zM340 1688l295 325h27l293 -325h-123l-184 213l-185 -213h-123z" />
<glyph unicode="&#xcb;" horiz-adv-x="1296" d="M162 0v1567h1003v-156h-841v-532h833v-150h-833v-573h845v-156h-1007zM162 0zM391 1743v240h123v-240h-123zM823 1743v240h123v-240h-123z" />
<glyph unicode="&#xcc;" horiz-adv-x="561" d="M18 0zM19 2013h143l285 -325h-117zM236 0v1567h162v-1567h-162z" />
<glyph unicode="&#xcd;" horiz-adv-x="561" d="M117 0zM117 1688l284 325h144l-312 -325h-116zM162 0v1567h162v-1567h-162z" />
<glyph unicode="&#xce;" horiz-adv-x="622" d="M4 0zM4 1688l295 325h27l293 -325h-123l-184 213l-185 -213h-123zM228 0v1567h162v-1567h-162z" />
<glyph unicode="&#xcf;" horiz-adv-x="563" d="M4 0zM4 1743v240h123v-240h-123zM201 0v1567h162v-1567h-162zM436 1743v240h123v-240h-123z" />
<glyph unicode="&#xd0;" horiz-adv-x="1550" d="M18 750v110h193v707h494q203 0 343 -67.5t227 -176.5t126 -249t39 -283t-38 -284.5t-125 -254.5t-227.5 -182.5t-344.5 -69.5h-494v750h-193zM373 156h338q154 0 261 50t174.5 136t99.5 199.5t32 242.5q0 127 -30.5 241t-98.5 200t-176.5 136t-261.5 50h-338v-551h526 v-110h-526v-594z" />
<glyph unicode="&#xd1;" horiz-adv-x="1576" d="M162 0v1587h24l1071 -1220v1200h158v-1587h-26l-1070 1220v-1200h-157zM162 0zM431 1831q35 61 85 103t121 42q45 0 80 -17t86 -50q43 -29 76 -44.5t68 -15.5q43 0 74.5 26t64.5 77l61 -53q-37 -66 -88 -106t-118 -40q-43 0 -78 16.5t-88 51.5q-43 29 -75 44t-69 15 q-39 0 -69.5 -22.5t-69.5 -81.5z" />
<glyph unicode="&#xd2;" horiz-adv-x="1654" d="M111 0zM111 784q0 154 47 299.5t138 257t224 179t305 67.5q174 0 308.5 -67.5t225.5 -180t138 -258t47 -299.5t-47 -298t-138 -256.5t-225.5 -180t-308.5 -67.5q-176 0 -309 68.5t-223 181t-136 258t-46 296.5zM272 784q0 -133 38 -251.5t110 -206.5t174 -139.5 t233 -51.5q129 0 231.5 51.5t175.5 138.5t110.5 204.5t37.5 252.5t-37.5 253t-110.5 206t-176.5 139.5t-232.5 51.5t-232.5 -51.5t-174 -139.5t-108.5 -205.5t-38 -251.5zM555 2013h143l285 -325h-117z" />
<glyph unicode="&#xd3;" horiz-adv-x="1654" d="M111 0zM111 784q0 154 47 299.5t138 257t224 179t305 67.5q174 0 308.5 -67.5t225.5 -180t138 -258t47 -299.5t-47 -298t-138 -256.5t-225.5 -180t-308.5 -67.5q-176 0 -309 68.5t-223 181t-136 258t-46 296.5zM272 784q0 -133 38 -251.5t110 -206.5t174 -139.5 t233 -51.5q129 0 231.5 51.5t175.5 138.5t110.5 204.5t37.5 252.5t-37.5 253t-110.5 206t-176.5 139.5t-232.5 51.5t-232.5 -51.5t-174 -139.5t-108.5 -205.5t-38 -251.5zM674 1688l284 325h144l-312 -325h-116z" />
<glyph unicode="&#xd4;" horiz-adv-x="1654" d="M111 0zM111 784q0 154 47 299.5t138 257t224 179t305 67.5q174 0 308.5 -67.5t225.5 -180t138 -258t47 -299.5t-47 -298t-138 -256.5t-225.5 -180t-308.5 -67.5q-176 0 -309 68.5t-223 181t-136 258t-46 296.5zM272 784q0 -133 38 -251.5t110 -206.5t174 -139.5 t233 -51.5q129 0 231.5 51.5t175.5 138.5t110.5 204.5t37.5 252.5t-37.5 253t-110.5 206t-176.5 139.5t-232.5 51.5t-232.5 -51.5t-174 -139.5t-108.5 -205.5t-38 -251.5zM518 1688l295 325h27l293 -325h-123l-184 213l-185 -213h-123z" />
<glyph unicode="&#xd5;" horiz-adv-x="1654" d="M111 0zM111 784q0 154 47 299.5t138 257t224 179t305 67.5q174 0 308.5 -67.5t225.5 -180t138 -258t47 -299.5t-47 -298t-138 -256.5t-225.5 -180t-308.5 -67.5q-176 0 -309 68.5t-223 181t-136 258t-46 296.5zM272 784q0 -133 38 -251.5t110 -206.5t174 -139.5 t233 -51.5q129 0 231.5 51.5t175.5 138.5t110.5 204.5t37.5 252.5t-37.5 253t-110.5 206t-176.5 139.5t-232.5 51.5t-232.5 -51.5t-174 -139.5t-108.5 -205.5t-38 -251.5zM467 1831q35 61 85 103t121 42q45 0 80 -17t86 -50q43 -29 76 -44.5t68 -15.5q43 0 74.5 26t64.5 77 l61 -53q-37 -66 -88 -106t-118 -40q-43 0 -78 16.5t-88 51.5q-43 29 -75 44t-69 15q-39 0 -69.5 -22.5t-69.5 -81.5z" />
<glyph unicode="&#xd6;" horiz-adv-x="1654" d="M111 0zM111 784q0 154 47 299.5t138 257t224 179t305 67.5q174 0 308.5 -67.5t225.5 -180t138 -258t47 -299.5t-47 -298t-138 -256.5t-225.5 -180t-308.5 -67.5q-176 0 -309 68.5t-223 181t-136 258t-46 296.5zM272 784q0 -133 38 -251.5t110 -206.5t174 -139.5 t233 -51.5q129 0 231.5 51.5t175.5 138.5t110.5 204.5t37.5 252.5t-37.5 253t-110.5 206t-176.5 139.5t-232.5 51.5t-232.5 -51.5t-174 -139.5t-108.5 -205.5t-38 -251.5zM551 1743v240h123v-240h-123zM983 1743v240h123v-240h-123z" />
<glyph unicode="&#xd7;" d="M338 467l317 336l-317 336l63 73l320 -340l315 340l68 -73l-313 -338l313 -334l-66 -72l-317 338l-318 -342z" />
<glyph unicode="&#xd8;" horiz-adv-x="1654" d="M111 784q0 154 47 299.5t138 257t224 179t305 67.5q123 0 223.5 -34.5t182.5 -94.5l203 301l71 -55l-205 -303q121 -117 182.5 -278.5t61.5 -340.5q0 -154 -47 -298t-139 -256.5t-226.5 -180t-308.5 -67.5q-119 0 -218 31.5t-179 90.5l-205 -303l-69 54l206 307 q-123 117 -185 280.5t-62 343.5zM272 782q0 -147 45 -273t132 -216l694 1034q-66 49 -145 77t-173 28q-129 0 -232.5 -51.5t-174 -139.5t-108.5 -207t-38 -252zM514 233q66 -47 143.5 -72.5t169.5 -25.5q129 0 231.5 51.5t175.5 138.5t110.5 204.5t37.5 252.5 q0 145 -44 269.5t-128 214.5z" />
<glyph unicode="&#xd9;" horiz-adv-x="1433" d="M143 0zM143 614v953h164v-951q0 -113 21.5 -201.5t69.5 -151t126 -95.5t193 -33q217 0 316.5 119t99.5 362v951h157v-951q0 -326 -148.5 -481t-424.5 -155q-295 0 -434.5 163.5t-139.5 470.5zM443 2013h143l285 -325h-117z" />
<glyph unicode="&#xda;" horiz-adv-x="1433" d="M143 0zM143 614v953h164v-951q0 -113 21.5 -201.5t69.5 -151t126 -95.5t193 -33q217 0 316.5 119t99.5 362v951h157v-951q0 -326 -148.5 -481t-424.5 -155q-295 0 -434.5 163.5t-139.5 470.5zM562 1688l284 325h144l-312 -325h-116z" />
<glyph unicode="&#xdb;" horiz-adv-x="1433" d="M143 0zM143 614v953h164v-951q0 -113 21.5 -201.5t69.5 -151t126 -95.5t193 -33q217 0 316.5 119t99.5 362v951h157v-951q0 -326 -148.5 -481t-424.5 -155q-295 0 -434.5 163.5t-139.5 470.5zM407 1688l295 325h27l293 -325h-123l-184 213l-185 -213h-123z" />
<glyph unicode="&#xdc;" horiz-adv-x="1433" d="M143 0zM143 614v953h164v-951q0 -113 21.5 -201.5t69.5 -151t126 -95.5t193 -33q217 0 316.5 119t99.5 362v951h157v-951q0 -326 -148.5 -481t-424.5 -155q-295 0 -434.5 163.5t-139.5 470.5zM441 1743v240h123v-240h-123zM873 1743v240h123v-240h-123z" />
<glyph unicode="&#xdd;" horiz-adv-x="1425" d="M4 0zM4 1567h185l524 -707l528 707h178l-622 -836v-731h-164v727zM558 1688l284 325h144l-312 -325h-116z" />
<glyph unicode="&#xde;" horiz-adv-x="1300" d="M162 0v1567h162v-316h454q113 0 195 -40t135 -105.5t78.5 -150.5t25.5 -173q0 -86 -24.5 -170t-77.5 -149.5t-135 -105.5t-197 -40h-454v-317h-162zM324 465h452q74 0 127 26.5t87 70.5t49.5 101.5t15.5 116.5q0 61 -16.5 118.5t-50.5 101.5t-86 71t-126 27h-452v-633z " />
<glyph unicode="&#xdf;" horiz-adv-x="1247" d="M162 0v1251q0 94 25.5 158t73.5 103.5t114.5 57t148.5 17.5q201 0 282 -92t81 -266q0 -104 -32 -217t-120 -224q82 8 154 -14t123 -71.5t80.5 -124t29.5 -170.5q0 -86 -24.5 -163t-76.5 -136.5t-133 -94t-194 -34.5q-88 0 -165.5 22.5t-125.5 65.5l33 112 q41 -39 106.5 -60.5t137.5 -21.5q80 0 136 27t92 70t52.5 99t16.5 118q0 86 -31 145t-86 93t-130 41t-163 -13v29q94 135 134 249.5t40 241.5q0 141 -48 205.5t-165 64.5q-102 0 -161.5 -53t-59.5 -182v-1233h-145z" />
<glyph unicode="&#xe0;" horiz-adv-x="1030" d="M76 0zM76 238q0 102 59.5 164.5t196.5 84.5l428 66q0 57 -13.5 99t-45 70t-83 40t-129.5 12q-72 0 -152.5 -15.5t-184.5 -62.5l-23 107q111 53 205 68.5t170 15.5q217 0 309 -79t92 -239v-569h-141v100q-94 -53 -186.5 -86.5t-200.5 -33.5q-147 0 -224 67.5t-77 190.5z M215 250q0 -82 51.5 -126t153.5 -44q90 0 175 30.5t165 73.5v291l-381 -65q-51 -8 -83 -24.5t-50.5 -38t-24.5 -46.5t-6 -51zM248 1312h143l285 -325h-117z" />
<glyph unicode="&#xe1;" horiz-adv-x="1030" d="M76 0zM76 238q0 102 59.5 164.5t196.5 84.5l428 66q0 57 -13.5 99t-45 70t-83 40t-129.5 12q-72 0 -152.5 -15.5t-184.5 -62.5l-23 107q111 53 205 68.5t170 15.5q217 0 309 -79t92 -239v-569h-141v100q-94 -53 -186.5 -86.5t-200.5 -33.5q-147 0 -224 67.5t-77 190.5z M215 250q0 -82 51.5 -126t153.5 -44q90 0 175 30.5t165 73.5v291l-381 -65q-51 -8 -83 -24.5t-50.5 -38t-24.5 -46.5t-6 -51zM357 987l284 325h144l-312 -325h-116z" />
<glyph unicode="&#xe2;" horiz-adv-x="1030" d="M76 0zM76 238q0 102 59.5 164.5t196.5 84.5l428 66q0 57 -13.5 99t-45 70t-83 40t-129.5 12q-72 0 -152.5 -15.5t-184.5 -62.5l-23 107q111 53 205 68.5t170 15.5q217 0 309 -79t92 -239v-569h-141v100q-94 -53 -186.5 -86.5t-200.5 -33.5q-147 0 -224 67.5t-77 190.5z M215 250q0 -82 51.5 -126t153.5 -44q90 0 175 30.5t165 73.5v291l-381 -65q-51 -8 -83 -24.5t-50.5 -38t-24.5 -46.5t-6 -51zM215 987l295 325h27l293 -325h-123l-184 213l-185 -213h-123z" />
<glyph unicode="&#xe3;" horiz-adv-x="1032" d="M76 0zM76 238q0 102 59.5 164.5t196.5 84.5l428 66q0 57 -13.5 99t-45 70t-83 40t-129.5 12q-72 0 -152.5 -15.5t-184.5 -62.5l-23 107q111 53 205 68.5t170 15.5q217 0 309 -79t92 -239v-569h-141v100q-94 -53 -186.5 -86.5t-200.5 -33.5q-147 0 -224 67.5t-77 190.5z M164 1130q35 61 85 103t121 42q45 0 80 -17t86 -50q43 -29 76 -44.5t68 -15.5q43 0 74.5 26t64.5 77l61 -53q-37 -66 -88 -106t-118 -40q-43 0 -78 16.5t-88 51.5q-43 29 -75 44t-69 15q-39 0 -69.5 -22.5t-69.5 -81.5zM215 250q0 -82 51.5 -126t153.5 -44q90 0 175 30.5 t165 73.5v291l-381 -65q-51 -8 -83 -24.5t-50.5 -38t-24.5 -46.5t-6 -51z" />
<glyph unicode="&#xe4;" horiz-adv-x="1030" d="M76 0zM76 238q0 102 59.5 164.5t196.5 84.5l428 66q0 57 -13.5 99t-45 70t-83 40t-129.5 12q-72 0 -152.5 -15.5t-184.5 -62.5l-23 107q111 53 205 68.5t170 15.5q217 0 309 -79t92 -239v-569h-141v100q-94 -53 -186.5 -86.5t-200.5 -33.5q-147 0 -224 67.5t-77 190.5z M215 250q0 -82 51.5 -126t153.5 -44q90 0 175 30.5t165 73.5v291l-381 -65q-51 -8 -83 -24.5t-50.5 -38t-24.5 -46.5t-6 -51zM248 1042v240h123v-240h-123zM680 1042v240h123v-240h-123z" />
<glyph unicode="&#xe5;" horiz-adv-x="1030" d="M76 0zM76 238q0 102 59.5 164.5t196.5 84.5l428 66q0 57 -13.5 99t-45 70t-83 40t-129.5 12q-72 0 -152.5 -15.5t-184.5 -62.5l-23 107q111 53 205 68.5t170 15.5q217 0 309 -79t92 -239v-569h-141v100q-94 -53 -186.5 -86.5t-200.5 -33.5q-147 0 -224 67.5t-77 190.5z M215 250q0 -82 51.5 -126t153.5 -44q90 0 175 30.5t165 73.5v291l-381 -65q-51 -8 -83 -24.5t-50.5 -38t-24.5 -46.5t-6 -51zM323 1194q0 39 13.5 75t39 63.5t62.5 45t84 17.5q49 0 86 -17.5t61.5 -45t37.5 -63.5t13 -75t-13 -75t-37.5 -64.5t-61.5 -46t-86 -17.5 q-47 0 -84 17.5t-62.5 46t-39 64.5t-13.5 75zM393 1194q0 -57 32.5 -100t98.5 -43q63 0 96 42t33 99q0 59 -34 102t-97 43q-61 0 -95 -43t-34 -100z" />
<glyph unicode="&#xe6;" horiz-adv-x="1753" d="M76 238q0 106 60.5 167.5t195.5 81.5l428 66q0 59 -14.5 101t-45 69t-83 39t-128.5 12q-72 0 -152.5 -14.5t-184.5 -61.5l-23 105q111 53 204 68.5t169 15.5q154 0 243 -39t127 -117q55 70 141.5 113t205.5 43q115 0 195.5 -40t132.5 -102.5t77 -141.5t25 -157 q0 -20 -1 -29t-1 -22h-729q4 -66 25.5 -121t63.5 -96t104.5 -64.5t148.5 -23.5q72 0 141 16.5t143 51.5l29 -101q-51 -33 -138 -55t-190 -22q-141 0 -236.5 46t-150.5 121q-98 -66 -215 -116.5t-260 -50.5q-152 0 -229.5 67.5t-77.5 190.5zM215 250q0 -80 50.5 -125 t154.5 -45q100 0 198.5 40t196.5 99q-43 94 -43 207v25.5t2 25.5l-393 -67q-53 -10 -85 -26.5t-50.5 -38t-24.5 -46.5t-6 -49zM918 475h587q0 57 -17.5 111.5t-52 97.5t-87.5 68.5t-127 25.5q-70 0 -124.5 -23.5t-92 -64.5t-59 -96t-27.5 -119z" />
<glyph unicode="&#xe7;" horiz-adv-x="987" d="M111 0zM111 436q0 102 35.5 186.5t96 142.5t142.5 90t174 32q88 0 174 -29t158 -86l-66 -90q-66 51 -129 70.5t-121 19.5q-70 0 -129 -23.5t-102 -67.5t-67.5 -106.5t-24.5 -140.5q0 -68 18.5 -129t57.5 -108t97 -75t136 -28q96 0 159.5 41t110.5 109l78 -64 q-49 -86 -138 -143t-226 -57q-109 0 -190 38.5t-135 102t-81.5 145.5t-27.5 170zM363 -414l102 351h121l-125 -351h-98z" />
<glyph unicode="&#xe8;" horiz-adv-x="1091" d="M111 0zM111 426q0 88 27.5 171t82.5 147.5t139 103.5t197 39q115 0 196 -40t133 -102.5t76.5 -141.5t24.5 -157q0 -20 -1 -29t-1 -22h-729q4 -66 25.5 -121t63.5 -96t104.5 -64.5t148.5 -23.5q72 0 141.5 16.5t143.5 51.5l28 -101q-51 -33 -138 -55t-189 -22 q-127 0 -217.5 37.5t-147.5 101t-82.5 143.5t-25.5 164zM256 475h588q0 57 -17.5 111.5t-52.5 97.5t-88 68.5t-127 25.5q-70 0 -124 -23.5t-92 -64.5t-59.5 -96t-27.5 -119zM283 1312h143l285 -325h-117z" />
<glyph unicode="&#xe9;" horiz-adv-x="1091" d="M111 0zM111 426q0 88 27.5 171t82.5 147.5t139 103.5t197 39q115 0 196 -40t133 -102.5t76.5 -141.5t24.5 -157q0 -20 -1 -29t-1 -22h-729q4 -66 25.5 -121t63.5 -96t104.5 -64.5t148.5 -23.5q72 0 141.5 16.5t143.5 51.5l28 -101q-51 -33 -138 -55t-189 -22 q-127 0 -217.5 37.5t-147.5 101t-82.5 143.5t-25.5 164zM256 475h588q0 57 -17.5 111.5t-52.5 97.5t-88 68.5t-127 25.5q-70 0 -124 -23.5t-92 -64.5t-59.5 -96t-27.5 -119zM412 987l284 325h144l-312 -325h-116z" />
<glyph unicode="&#xea;" horiz-adv-x="1091" d="M111 0zM111 426q0 88 27.5 171t82.5 147.5t139 103.5t197 39q115 0 196 -40t133 -102.5t76.5 -141.5t24.5 -157q0 -20 -1 -29t-1 -22h-729q4 -66 25.5 -121t63.5 -96t104.5 -64.5t148.5 -23.5q72 0 141.5 16.5t143.5 51.5l28 -101q-51 -33 -138 -55t-189 -22 q-127 0 -217.5 37.5t-147.5 101t-82.5 143.5t-25.5 164zM256 475h588q0 57 -17.5 111.5t-52.5 97.5t-88 68.5t-127 25.5q-70 0 -124 -23.5t-92 -64.5t-59.5 -96t-27.5 -119zM262 987l295 325h27l293 -325h-123l-184 213l-185 -213h-123z" />
<glyph unicode="&#xeb;" horiz-adv-x="1091" d="M111 0zM111 426q0 88 27.5 171t82.5 147.5t139 103.5t197 39q115 0 196 -40t133 -102.5t76.5 -141.5t24.5 -157q0 -20 -1 -29t-1 -22h-729q4 -66 25.5 -121t63.5 -96t104.5 -64.5t148.5 -23.5q72 0 141.5 16.5t143.5 51.5l28 -101q-51 -33 -138 -55t-189 -22 q-127 0 -217.5 37.5t-147.5 101t-82.5 143.5t-25.5 164zM256 475h588q0 57 -17.5 111.5t-52.5 97.5t-88 68.5t-127 25.5q-70 0 -124 -23.5t-92 -64.5t-59.5 -96t-27.5 -119zM291 1042v240h123v-240h-123zM723 1042v240h123v-240h-123z" />
<glyph unicode="&#xec;" horiz-adv-x="544" d="M10 0zM11 1312h143l285 -325h-117zM236 0v864h145v-864h-145z" />
<glyph unicode="&#xed;" horiz-adv-x="544" d="M109 0zM109 987l284 325h144l-312 -325h-116zM162 0v864h145v-864h-145z" />
<glyph unicode="&#xee;" horiz-adv-x="614" d="M0 0zM0 987l295 325h27l293 -325h-123l-184 213l-185 -213h-123zM234 0v864h145v-864h-145z" />
<glyph unicode="&#xef;" horiz-adv-x="557" d="M0 0zM0 1042v240h123v-240h-123zM203 0v864h145v-864h-145zM432 1042v240h123v-240h-123z" />
<glyph unicode="&#xf0;" horiz-adv-x="1105" d="M111 440q0 82 23.5 162t72.5 143.5t122.5 102.5t172.5 39q92 0 174 -31t145 -78q-31 139 -89 258t-136 217l-246 -206l-45 79l234 195q-74 82 -156 143.5t-162 102.5h172q53 -25 113.5 -69t122.5 -103l229 192l45 -78l-215 -178q61 -70 115.5 -155.5t96.5 -186 t66.5 -215.5t24.5 -242q0 -274 -113.5 -413t-324.5 -139q-109 0 -191.5 38.5t-138 102t-84 146.5t-28.5 173zM258 451q0 -72 19.5 -134.5t56.5 -109.5t92 -75t127 -28q137 0 216 105t79 328q0 35 -2 66.5t-6 64.5q-72 53 -152 85.5t-156 32.5q-68 0 -120 -26.5t-85.5 -72.5 t-51 -107.5t-17.5 -128.5z" />
<glyph unicode="&#xf1;" horiz-adv-x="1140" d="M152 0v864h143v-98q31 20 76 42.5t100 39t117.5 28t128.5 11.5q76 0 132 -17.5t93 -58.5t55.5 -108.5t18.5 -167.5v-535h-148v518q0 141 -49 195.5t-151 54.5q-53 0 -107.5 -11.5t-106 -27.5t-92 -36.5t-65.5 -39.5v-653h-145zM152 0zM224 1130q35 61 85 103t121 42 q45 0 80 -17t86 -50q43 -29 76 -44.5t68 -15.5q43 0 74.5 26t64.5 77l61 -53q-37 -66 -88 -106t-118 -40q-43 0 -78 16.5t-88 51.5q-43 29 -75 44t-69 15q-39 0 -69.5 -22.5t-69.5 -81.5z" />
<glyph unicode="&#xf2;" horiz-adv-x="1091" d="M111 0zM111 434q0 86 28.5 168t84 145.5t137 101.5t186.5 38q104 0 186 -39t137.5 -102.5t84 -145.5t28.5 -168t-28.5 -168t-85 -145.5t-137.5 -101t-185 -37.5t-186 37.5t-137.5 101t-84 145.5t-28.5 170zM256 434q0 -70 19.5 -132t56.5 -108.5t91 -73t124 -26.5 t124 26.5t91 73t56.5 107.5t19.5 131t-19.5 131.5t-56.5 107.5t-91 73.5t-124 27.5t-124 -26.5t-91 -72.5t-56.5 -107.5t-19.5 -131.5zM275 1312h143l285 -325h-117z" />
<glyph unicode="&#xf3;" horiz-adv-x="1091" d="M111 0zM111 434q0 86 28.5 168t84 145.5t137 101.5t186.5 38q104 0 186 -39t137.5 -102.5t84 -145.5t28.5 -168t-28.5 -168t-85 -145.5t-137.5 -101t-185 -37.5t-186 37.5t-137.5 101t-84 145.5t-28.5 170zM256 434q0 -70 19.5 -132t56.5 -108.5t91 -73t124 -26.5 t124 26.5t91 73t56.5 107.5t19.5 131t-19.5 131.5t-56.5 107.5t-91 73.5t-124 27.5t-124 -26.5t-91 -72.5t-56.5 -107.5t-19.5 -131.5zM394 987l284 325h144l-312 -325h-116z" />
<glyph unicode="&#xf4;" horiz-adv-x="1091" d="M111 0zM111 434q0 86 28.5 168t84 145.5t137 101.5t186.5 38q104 0 186 -39t137.5 -102.5t84 -145.5t28.5 -168t-28.5 -168t-85 -145.5t-137.5 -101t-185 -37.5t-186 37.5t-137.5 101t-84 145.5t-28.5 170zM237 987l295 325h27l293 -325h-123l-184 213l-185 -213h-123z M256 434q0 -70 19.5 -132t56.5 -108.5t91 -73t124 -26.5t124 26.5t91 73t56.5 107.5t19.5 131t-19.5 131.5t-56.5 107.5t-91 73.5t-124 27.5t-124 -26.5t-91 -72.5t-56.5 -107.5t-19.5 -131.5z" />
<glyph unicode="&#xf5;" horiz-adv-x="1091" d="M111 0zM111 434q0 86 28.5 168t84 145.5t137 101.5t186.5 38q104 0 186 -39t137.5 -102.5t84 -145.5t28.5 -168t-28.5 -168t-85 -145.5t-137.5 -101t-185 -37.5t-186 37.5t-137.5 101t-84 145.5t-28.5 170zM189 1130q35 61 85 103t121 42q45 0 80 -17t86 -50 q43 -29 76 -44.5t68 -15.5q43 0 74.5 26t64.5 77l61 -53q-37 -66 -88 -106t-118 -40q-43 0 -78 16.5t-88 51.5q-43 29 -75 44t-69 15q-39 0 -69.5 -22.5t-69.5 -81.5zM256 434q0 -70 19.5 -132t56.5 -108.5t91 -73t124 -26.5t124 26.5t91 73t56.5 107.5t19.5 131 t-19.5 131.5t-56.5 107.5t-91 73.5t-124 27.5t-124 -26.5t-91 -72.5t-56.5 -107.5t-19.5 -131.5z" />
<glyph unicode="&#xf6;" horiz-adv-x="1091" d="M111 0zM111 434q0 86 28.5 168t84 145.5t137 101.5t186.5 38q104 0 186 -39t137.5 -102.5t84 -145.5t28.5 -168t-28.5 -168t-85 -145.5t-137.5 -101t-185 -37.5t-186 37.5t-137.5 101t-84 145.5t-28.5 170zM256 434q0 -70 19.5 -132t56.5 -108.5t91 -73t124 -26.5 t124 26.5t91 73t56.5 107.5t19.5 131t-19.5 131.5t-56.5 107.5t-91 73.5t-124 27.5t-124 -26.5t-91 -72.5t-56.5 -107.5t-19.5 -131.5zM271 1042v240h123v-240h-123zM703 1042v240h123v-240h-123z" />
<glyph unicode="&#xf7;" d="M268 752v104h903v-104h-903zM643 254v250h162v-250h-162zM643 1106v250h162v-250h-162z" />
<glyph unicode="&#xf8;" horiz-adv-x="1091" d="M111 434q0 86 28.5 168t84 145.5t137 101.5t186.5 38q55 0 103 -11.5t91 -31.5l115 196l72 -49l-113 -192q82 -66 125 -163t43 -204q0 -86 -28.5 -168t-85 -145.5t-137.5 -101t-185 -37.5q-102 0 -191 38l-123 -211l-69 50l121 204q-86 66 -130 164t-44 209zM256 434 q0 -78 23.5 -145.5t68.5 -114.5l332 565q-61 33 -133 33q-70 0 -124 -26.5t-91 -72.5t-56.5 -107.5t-19.5 -131.5zM418 123q57 -29 129 -29q70 0 124 26.5t91 73t56.5 107.5t19.5 131q0 76 -22.5 141.5t-67.5 112.5z" />
<glyph unicode="&#xf9;" horiz-adv-x="1175" d="M162 0zM162 330v534h145v-514q0 -72 12.5 -121t38 -77.5t63.5 -41t87 -12.5q53 0 108.5 11.5t106.5 28t92 36t66 37.5v653h145v-864h-141v98q-31 -20 -76 -41.5t-100.5 -38t-118 -27.5t-125.5 -11q-156 0 -229.5 79.5t-73.5 270.5zM314 1312h143l285 -325h-117z" />
<glyph unicode="&#xfa;" horiz-adv-x="1175" d="M162 0zM162 330v534h145v-514q0 -72 12.5 -121t38 -77.5t63.5 -41t87 -12.5q53 0 108.5 11.5t106.5 28t92 36t66 37.5v653h145v-864h-141v98q-31 -20 -76 -41.5t-100.5 -38t-118 -27.5t-125.5 -11q-156 0 -229.5 79.5t-73.5 270.5zM435 987l284 325h144l-312 -325h-116z " />
<glyph unicode="&#xfb;" horiz-adv-x="1175" d="M162 0zM162 330v534h145v-514q0 -72 12.5 -121t38 -77.5t63.5 -41t87 -12.5q53 0 108.5 11.5t106.5 28t92 36t66 37.5v653h145v-864h-141v98q-31 -20 -76 -41.5t-100.5 -38t-118 -27.5t-125.5 -11q-156 0 -229.5 79.5t-73.5 270.5zM280 987l295 325h27l293 -325h-123 l-184 213l-185 -213h-123z" />
<glyph unicode="&#xfc;" horiz-adv-x="1175" d="M162 0zM162 330v534h145v-514q0 -72 12.5 -121t38 -77.5t63.5 -41t87 -12.5q53 0 108.5 11.5t106.5 28t92 36t66 37.5v653h145v-864h-141v98q-31 -20 -76 -41.5t-100.5 -38t-118 -27.5t-125.5 -11q-156 0 -229.5 79.5t-73.5 270.5zM314 1042v240h123v-240h-123zM746 1042 v240h123v-240h-123z" />
<glyph unicode="&#xfd;" horiz-adv-x="1005" d="M27 0zM27 864h149l326 -639l332 639h143l-664 -1278h-143l260 502zM347 987l284 325h144l-312 -325h-116z" />
<glyph unicode="&#xfe;" horiz-adv-x="1173" d="M162 -414v1981h145v-799q27 18 68 38.5t90 38t104.5 30t110.5 12.5q94 0 166 -37t119 -99.5t70.5 -144.5t23.5 -174q0 -90 -22.5 -171t-67.5 -144.5t-115 -100t-164 -36.5q-53 0 -108.5 11t-106.5 29.5t-94 40t-74 39.5v-514h-145zM307 209q27 -16 66 -34.5t85 -36 t95 -29t96 -11.5q63 0 113.5 24.5t83.5 69t50 104.5t17 134q0 150 -69.5 244t-200.5 94q-47 0 -95 -11.5t-93 -28.5t-83 -36.5t-65 -34.5v-448z" />
<glyph unicode="&#xff;" horiz-adv-x="1005" d="M27 0zM27 864h149l326 -639l332 639h143l-664 -1278h-143l260 502zM224 1024v240h123v-240h-123zM656 1024v240h123v-240h-123z" />
<glyph unicode="&#x152;" horiz-adv-x="2275" d="M111 791q0 143 35.5 283t119.5 249t221.5 176.5t337.5 67.5h1317v-156h-815v-532h807v-150h-807v-573h821v-156h-1323q-203 0 -340 69.5t-220 182.5t-118.5 254t-35.5 285zM272 784q0 -129 29 -243.5t94.5 -199.5t171 -135t258.5 -50l338 -2v1257h-338q-154 0 -259 -50 t-170.5 -135t-94.5 -199t-29 -243z" />
<glyph unicode="&#x153;" horiz-adv-x="1828" d="M111 434q0 86 28.5 168t84 145.5t137 101.5t186.5 38q129 0 222 -56.5t146 -146.5q53 90 147.5 146.5t231.5 56.5q115 0 196 -40t133 -102.5t76.5 -141.5t24.5 -157q0 -20 -1 -29t-1 -22h-729q4 -66 25.5 -121t63.5 -96t104.5 -64.5t148.5 -23.5q72 0 141.5 16.5 t143.5 51.5l29 -101q-51 -33 -138.5 -55t-189.5 -22q-158 0 -257 55t-153 143q-53 -88 -144 -143t-220 -55q-104 0 -186 37.5t-137.5 101t-84 145.5t-28.5 170zM256 434q0 -70 19.5 -132t56.5 -108.5t91 -73t124 -26.5t124 26.5t91 73t56.5 107.5t19.5 131t-19.5 131.5 t-56.5 107.5t-91 73.5t-124 27.5t-124 -26.5t-91 -72.5t-56.5 -107.5t-19.5 -131.5zM993 475h588q0 57 -17.5 111.5t-52 97.5t-88 68.5t-127.5 25.5q-70 0 -124 -23.5t-92 -64.5t-59.5 -96t-27.5 -119z" />
<glyph unicode="&#x178;" horiz-adv-x="1439" d="M12 0zM12 1567h185l524 -707l528 707h178l-622 -836v-731h-164v727zM445 1743v240h123v-240h-123zM877 1743v240h123v-240h-123z" />
<glyph unicode="&#x2c6;" horiz-adv-x="907" d="M145 969l295 325h27l293 -325h-123l-184 213l-185 -213h-123z" />
<glyph unicode="&#x2dc;" horiz-adv-x="1017" d="M152 1112q35 61 85 103t121 42q45 0 80 -17t86 -50q43 -29 76 -44.5t68 -15.5q43 0 74.5 26t64.5 77l61 -53q-37 -66 -88 -106t-118 -40q-43 0 -78 16.5t-88 51.5q-43 29 -75 44t-69 15q-39 0 -69.5 -22.5t-69.5 -81.5z" />
<glyph unicode="&#x2000;" horiz-adv-x="1016" />
<glyph unicode="&#x2001;" horiz-adv-x="2032" />
<glyph unicode="&#x2002;" horiz-adv-x="1016" />
<glyph unicode="&#x2003;" horiz-adv-x="2032" />
<glyph unicode="&#x2004;" horiz-adv-x="677" />
<glyph unicode="&#x2005;" horiz-adv-x="508" />
<glyph unicode="&#x2006;" horiz-adv-x="338" />
<glyph unicode="&#x2007;" horiz-adv-x="338" />
<glyph unicode="&#x2008;" horiz-adv-x="254" />
<glyph unicode="&#x2009;" horiz-adv-x="406" />
<glyph unicode="&#x200a;" horiz-adv-x="112" />
<glyph unicode="&#x2010;" horiz-adv-x="643" d="M47 500v110h547v-110h-547z" />
<glyph unicode="&#x2011;" horiz-adv-x="643" d="M47 500v110h547v-110h-547z" />
<glyph unicode="&#x2012;" horiz-adv-x="643" d="M47 500v110h547v-110h-547z" />
<glyph unicode="&#x2013;" horiz-adv-x="1001" d="M47 500v110h905v-110h-905z" />
<glyph unicode="&#x2014;" horiz-adv-x="1519" d="M47 500v110h1423v-110h-1423z" />
<glyph unicode="&#x2018;" horiz-adv-x="360" d="M98 1053zM98 1561l86 -508h64l-27 299h39v250h-162v-41z" />
<glyph unicode="&#x2019;" horiz-adv-x="360" d="M100 1053zM101 1352v250h162v-41l-86 -508h-64l27 299h-39z" />
<glyph unicode="&#x201a;" horiz-adv-x="360" d="M100 0zM101 0v250h162v-41l-86 -508h-64l27 299h-39z" />
<glyph unicode="&#x201c;" horiz-adv-x="608" d="M98 1053zM98 1561l86 -508h64l-27 299h39v250h-162v-41zM346 1561l86 -508h64l-27 299h39v250h-162v-41z" />
<glyph unicode="&#x201d;" horiz-adv-x="608" d="M100 1053zM101 1352v250h162v-41l-86 -508h-64l27 299h-39zM346 1352v250h162v-41l-86 -508h-64l27 299h-39z" />
<glyph unicode="&#x201e;" horiz-adv-x="608" d="M100 0zM101 0v250h162v-41l-86 -508h-64l27 299h-39zM346 0v250h162v-41l-86 -508h-64l27 299h-39z" />
<glyph unicode="&#x2022;" horiz-adv-x="690" d="M174 805q0 37 11.5 72.5t33 62.5t54 43t73.5 16q82 0 126 -58t44 -136q0 -39 -11 -75t-32.5 -63.5t-53.5 -44t-73 -16.5t-72.5 16.5t-54 44t-34 63.5t-11.5 75z" />
<glyph unicode="&#x2026;" horiz-adv-x="1538" d="M162 0v250h162v-250h-162zM162 0zM688 0v250h162v-250h-162zM1217 0v250h162v-250h-162z" />
<glyph unicode="&#x202f;" horiz-adv-x="406" />
<glyph unicode="&#x2039;" horiz-adv-x="649" d="M100 414v22l344 410h105l-332 -422l332 -424h-105z" />
<glyph unicode="&#x203a;" horiz-adv-x="649" d="M100 0l330 424l-330 422h105l344 -410v-22l-344 -414h-105z" />
<glyph unicode="&#x205f;" horiz-adv-x="508" />
<glyph unicode="&#x20ac;" d="M115 594l26 90h185q-2 25 -3 50.5t-1 51.5q0 35 2 73t6 75h-215l26 90h201q20 111 61 213t106.5 180t157 124t214.5 46q84 0 173 -25.5t150 -91.5l-39 -116q-72 59 -136 75.5t-118 16.5q-92 0 -162.5 -33t-120.5 -90t-83 -134t-49 -165h583l-24 -90h-574q-6 -68 -6 -139 v-56.5t4 -54.5h518l-24 -90h-484q14 -102 47 -187t82.5 -146.5t114 -95.5t144.5 -34q109 0 191.5 63.5t131.5 192.5l74 -76q-59 -152 -163.5 -241.5t-258.5 -89.5q-111 0 -198 49t-152.5 132t-107.5 194.5t-60 238.5h-219z" />
<glyph unicode="&#x2122;" horiz-adv-x="1787" d="M90 1479v88h596v-88h-248v-801h-106v801h-242zM797 678v909h18l389 -729l404 729h20v-909h-100v539l-314 -560h-20l-297 551v-530h-100z" />
<glyph unicode="&#x25fc;" horiz-adv-x="860" d="M0 0v860h860v-860h-860z" />
</font>
</defs>
</svg>
